<svg width="116" height="186" viewBox="0 0 116 186" fill="none" xmlns="http://www.w3.org/2000/svg">
<path d="M0 12.1061C0 7.48434 0 5.17345 1.02639 3.46862C1.62909 2.46754 2.46754 1.62909 3.46862 1.02639C5.17345 0 7.48435 0 12.1061 0H103.894C108.516 0 110.827 0 112.531 1.02639C113.532 1.62909 114.371 2.46754 114.974 3.46862C116 5.17345 116 7.48435 116 12.1061V167.894C116 172.516 116 174.827 114.974 176.531C114.371 177.532 113.532 178.371 112.531 178.974C110.827 180 108.516 180 103.894 180H57.8351H12.1062C7.48435 180 5.17345 180 3.46862 178.974C2.46754 178.371 1.62909 177.532 1.02639 176.531C0 174.827 0 172.516 0 167.894V12.1061Z" fill="url(#paint0_linear_1_44)" fill-opacity="0.55"/>
<path d="M18.1064 8.5H97.8936C100.214 8.5 101.92 8.50038 103.26 8.62598C104.592 8.7509 105.512 8.9966 106.273 9.45508C107.205 10.0157 107.984 10.7954 108.545 11.7266C109.003 12.4881 109.249 13.4077 109.374 14.7402C109.5 16.08 109.5 17.786 109.5 20.1064V160.88C109.5 163.18 109.5 164.87 109.375 166.199C109.251 167.521 109.007 168.435 108.551 169.195C107.995 170.122 107.216 170.906 106.292 171.466C105.534 171.926 104.623 172.173 103.308 172.304C101.984 172.435 100.301 172.445 98.0107 172.456C87.1496 172.51 70.8971 172.544 57.8418 172.376C44.6382 172.206 28.8709 172.237 18.2197 172.291C15.8705 172.303 14.1426 172.312 12.7871 172.192C11.4387 172.073 10.5101 171.83 9.74512 171.373C8.80632 170.812 8.02673 170.037 7.46094 169.101C6.99978 168.338 6.75272 167.412 6.62695 166.067C6.50055 164.716 6.5 162.994 6.5 160.651V20.1064C6.5 17.786 6.50038 16.08 6.62598 14.7402C6.7509 13.4077 6.9966 12.4881 7.45508 11.7266C8.01568 10.7954 8.79544 10.0157 9.72656 9.45508C10.4881 8.9966 11.4077 8.7509 12.7402 8.62598C14.08 8.50038 15.786 8.5 18.1064 8.5Z" fill="url(#paint1_linear_1_44)"/>
<path d="M18.1064 8.5H97.8936C100.214 8.5 101.92 8.50038 103.26 8.62598C104.592 8.7509 105.512 8.9966 106.273 9.45508C107.205 10.0157 107.984 10.7954 108.545 11.7266C109.003 12.4881 109.249 13.4077 109.374 14.7402C109.5 16.08 109.5 17.786 109.5 20.1064V160.88C109.5 163.18 109.5 164.87 109.375 166.199C109.251 167.521 109.007 168.435 108.551 169.195C107.995 170.122 107.216 170.906 106.292 171.466C105.534 171.926 104.623 172.173 103.308 172.304C101.984 172.435 100.301 172.445 98.0107 172.456C87.1496 172.51 70.8971 172.544 57.8418 172.376C44.6382 172.206 28.8709 172.237 18.2197 172.291C15.8705 172.303 14.1426 172.312 12.7871 172.192C11.4387 172.073 10.5101 171.83 9.74512 171.373C8.80632 170.812 8.02673 170.037 7.46094 169.101C6.99978 168.338 6.75272 167.412 6.62695 166.067C6.50055 164.716 6.5 162.994 6.5 160.651V20.1064C6.5 17.786 6.50038 16.08 6.62598 14.7402C6.7509 13.4077 6.9966 12.4881 7.45508 11.7266C8.01568 10.7954 8.79544 10.0157 9.72656 9.45508C10.4881 8.9966 11.4077 8.7509 12.7402 8.62598C14.08 8.50038 15.786 8.5 18.1064 8.5Z" fill="#E7E6E6" fill-opacity="0.55"/>
<path d="M18.1064 8.5H97.8936C100.214 8.5 101.92 8.50038 103.26 8.62598C104.592 8.7509 105.512 8.9966 106.273 9.45508C107.205 10.0157 107.984 10.7954 108.545 11.7266C109.003 12.4881 109.249 13.4077 109.374 14.7402C109.5 16.08 109.5 17.786 109.5 20.1064V160.88C109.5 163.18 109.5 164.87 109.375 166.199C109.251 167.521 109.007 168.435 108.551 169.195C107.995 170.122 107.216 170.906 106.292 171.466C105.534 171.926 104.623 172.173 103.308 172.304C101.984 172.435 100.301 172.445 98.0107 172.456C87.1496 172.51 70.8971 172.544 57.8418 172.376C44.6382 172.206 28.8709 172.237 18.2197 172.291C15.8705 172.303 14.1426 172.312 12.7871 172.192C11.4387 172.073 10.5101 171.83 9.74512 171.373C8.80632 170.812 8.02673 170.037 7.46094 169.101C6.99978 168.338 6.75272 167.412 6.62695 166.067C6.50055 164.716 6.5 162.994 6.5 160.651V20.1064C6.5 17.786 6.50038 16.08 6.62598 14.7402C6.7509 13.4077 6.9966 12.4881 7.45508 11.7266C8.01568 10.7954 8.79544 10.0157 9.72656 9.45508C10.4881 8.9966 11.4077 8.7509 12.7402 8.62598C14.08 8.50038 15.786 8.5 18.1064 8.5Z" stroke="url(#paint2_linear_1_44)"/>
<rect x="31.5" y="156.5" width="55" height="29" rx="14.5" fill="url(#paint3_linear_1_44)"/>
<rect x="31.5" y="156.5" width="55" height="29" rx="14.5" stroke="url(#paint4_linear_1_44)"/>
<defs>
<linearGradient id="paint0_linear_1_44" x1="58" y1="0" x2="58" y2="180" gradientUnits="userSpaceOnUse">
<stop offset="0.146758" stop-color="#BBBBBB" stop-opacity="0.42"/>
<stop offset="0.919486" stop-color="#555555"/>
</linearGradient>
<linearGradient id="paint1_linear_1_44" x1="3.92" y1="38.25" x2="136.352" y2="46.2374" gradientUnits="userSpaceOnUse">
<stop stop-color="#717171"/>
<stop offset="0.0932979" stop-color="#7B7B7B"/>
<stop offset="0.230387" stop-color="#CBCBCB"/>
<stop offset="0.678823" stop-color="#D1D1D1"/>
<stop offset="0.799224" stop-color="#818181"/>
<stop offset="0.835628" stop-color="#9B9B9B"/>
</linearGradient>
<linearGradient id="paint2_linear_1_44" x1="58" y1="8" x2="58" y2="172.876" gradientUnits="userSpaceOnUse">
<stop stop-color="white"/>
<stop offset="1" stop-color="white" stop-opacity="0"/>
</linearGradient>
<linearGradient id="paint3_linear_1_44" x1="29.88" y1="161.5" x2="99.2361" y2="173.888" gradientUnits="userSpaceOnUse">
<stop stop-color="#717171"/>
<stop offset="0.0932979" stop-color="#9E9898"/>
<stop offset="0.230387" stop-color="#D6D6D6"/>
<stop offset="0.678823" stop-color="#D6D6D6"/>
<stop offset="0.799224" stop-color="#9E9E9E"/>
<stop offset="0.835628" stop-color="#9B9B9B"/>
</linearGradient>
<linearGradient id="paint4_linear_1_44" x1="59" y1="156" x2="59" y2="186" gradientUnits="userSpaceOnUse">
<stop stop-color="white"/>
<stop offset="1" stop-color="#999999"/>
</linearGradient>
</defs>
</svg>
