<svg width="116" height="181" viewBox="0 0 116 181" fill="none" xmlns="http://www.w3.org/2000/svg">
<path d="M0 12.1061C0 7.48434 0 5.17345 1.02639 3.46862C1.62909 2.46754 2.46754 1.62909 3.46862 1.02639C5.17345 0 7.48435 0 12.1061 0H103.894C108.516 0 110.827 0 112.531 1.02639C113.532 1.62909 114.371 2.46754 114.974 3.46862C116 5.17345 116 7.48435 116 12.1061V160.894C116 165.516 116 167.827 114.974 169.531C114.371 170.532 113.532 171.371 112.531 171.974C110.827 173 108.516 173 103.894 173H57.8351H12.1062C7.48435 173 5.17345 173 3.46862 171.974C2.46754 171.371 1.62909 170.532 1.02639 169.531C0 167.827 0 165.516 0 160.894V12.1061Z" fill="url(#paint0_linear_1_57)" fill-opacity="0.55"/>
<path d="M18.1064 8.5H97.8936C100.214 8.5 101.92 8.50038 103.26 8.62598C104.592 8.7509 105.512 8.9966 106.273 9.45508C107.205 10.0157 107.984 10.7954 108.545 11.7266C109.003 12.4881 109.249 13.4077 109.374 14.7402C109.5 16.08 109.5 17.786 109.5 20.1064V152.881C109.5 155.182 109.5 156.873 109.375 158.202C109.251 159.524 109.007 160.439 108.551 161.199C107.995 162.126 107.215 162.909 106.291 163.47C105.533 163.929 104.622 164.177 103.306 164.308C101.982 164.439 100.297 164.447 98.0059 164.458C87.1446 164.509 70.8942 164.542 57.8408 164.382C44.6353 164.22 28.8659 164.25 18.2148 164.302C15.8669 164.313 14.1399 164.321 12.7852 164.201C11.4373 164.082 10.5091 163.839 9.74414 163.382C8.80556 162.821 8.02652 162.044 7.46094 161.108C6.99995 160.346 6.75268 159.421 6.62695 158.077C6.50058 156.727 6.5 155.005 6.5 152.664V20.1064C6.5 17.786 6.50038 16.08 6.62598 14.7402C6.7509 13.4077 6.9966 12.4881 7.45508 11.7266C8.01568 10.7954 8.79544 10.0157 9.72656 9.45508C10.4881 8.9966 11.4077 8.7509 12.7402 8.62598C14.08 8.50038 15.786 8.5 18.1064 8.5Z" fill="url(#paint1_linear_1_57)" stroke="url(#paint2_linear_1_57)"/>
<rect x="32.5" y="151.5" width="55" height="29" rx="14.5" fill="url(#paint3_linear_1_57)"/>
<rect x="32.5" y="151.5" width="55" height="29" rx="14.5" stroke="url(#paint4_linear_1_57)"/>
<defs>
<linearGradient id="paint0_linear_1_57" x1="58" y1="0" x2="58" y2="173" gradientUnits="userSpaceOnUse">
<stop offset="0.146758" stop-color="#E97929" stop-opacity="0.42"/>
<stop offset="0.919486" stop-color="#E97929"/>
</linearGradient>
<linearGradient id="paint1_linear_1_57" x1="7.04" y1="42.0167" x2="135.971" y2="50.1794" gradientUnits="userSpaceOnUse">
<stop stop-color="#D6600B"/>
<stop offset="0.167733" stop-color="#F58C41"/>
<stop offset="0.316151" stop-color="#FBCFB0"/>
<stop offset="0.482967" stop-color="#F59047"/>
<stop offset="0.59721" stop-color="#FBD0B1"/>
<stop offset="0.744539" stop-color="#F58B40"/>
<stop offset="0.898612" stop-color="#F58B40"/>
</linearGradient>
<linearGradient id="paint2_linear_1_57" x1="58" y1="8" x2="58" y2="164.882" gradientUnits="userSpaceOnUse">
<stop stop-color="white"/>
<stop offset="1" stop-color="white" stop-opacity="0"/>
</linearGradient>
<linearGradient id="paint3_linear_1_57" x1="32.56" y1="157.5" x2="100.113" y2="169.552" gradientUnits="userSpaceOnUse">
<stop stop-color="#D6600B"/>
<stop offset="0.167733" stop-color="#F58C41"/>
<stop offset="0.316151" stop-color="#FBCFB0"/>
<stop offset="0.482967" stop-color="#F59047"/>
<stop offset="0.59721" stop-color="#FBD0B1"/>
<stop offset="0.744539" stop-color="#F58B40"/>
<stop offset="0.898612" stop-color="#F58B40"/>
</linearGradient>
<linearGradient id="paint4_linear_1_57" x1="60" y1="151" x2="60" y2="181" gradientUnits="userSpaceOnUse">
<stop stop-color="white"/>
<stop offset="1" stop-color="#F69956"/>
</linearGradient>
</defs>
</svg>
