<svg width="43" height="36" viewBox="0 0 43 36" fill="none" xmlns="http://www.w3.org/2000/svg">
<g filter="url(#filter0_d_1_32)">
<mask id="path-1-outside-1_1_32" maskUnits="userSpaceOnUse" x="2.89857" y="-1.80782" width="36.4174" height="29.7934" fill="black">
<rect fill="white" x="2.89857" y="-1.80782" width="36.4174" height="29.7934"/>
<path d="M14.1415 25.7417L18.858 4.14071L21.8369 4.29682L17.1204 25.8978L14.1415 25.7417ZM4.61628 19.6097L5.27242 16.6571L22.0392 17.5358L21.383 20.4884L4.61628 19.6097ZM6.48157 25.3402L11.1981 3.73927L14.1769 3.89538L9.46043 25.4963L6.48157 25.3402ZM6.27928 12.1013L6.92478 9.14803L23.6915 10.0267L23.046 12.98L6.27928 12.1013ZM38.0942 0.779209L36.724 26.9251L31.1961 26.6354L32.2913 5.73656L32.1381 5.72853L25.9539 9.16811L26.2108 4.26575L32.8982 0.506899L38.0942 0.779209Z"/>
</mask>
<path d="M14.1415 25.7417L18.858 4.14071L21.8369 4.29682L17.1204 25.8978L14.1415 25.7417ZM4.61628 19.6097L5.27242 16.6571L22.0392 17.5358L21.383 20.4884L4.61628 19.6097ZM6.48157 25.3402L11.1981 3.73927L14.1769 3.89538L9.46043 25.4963L6.48157 25.3402ZM6.27928 12.1013L6.92478 9.14803L23.6915 10.0267L23.046 12.98L6.27928 12.1013ZM38.0942 0.779209L36.724 26.9251L31.1961 26.6354L32.2913 5.73656L32.1381 5.72853L25.9539 9.16811L26.2108 4.26575L32.8982 0.506899L38.0942 0.779209Z" fill="url(#paint0_linear_1_32)" shape-rendering="crispEdges"/>
<path d="M14.1415 25.7417L13.653 25.635L13.5274 26.2102L14.1153 26.241L14.1415 25.7417ZM18.858 4.14071L18.8842 3.64139L18.4601 3.61917L18.3695 4.03405L18.858 4.14071ZM21.8369 4.29682L22.3254 4.40348L22.451 3.82832L21.8631 3.79751L21.8369 4.29682ZM17.1204 25.8978L17.0942 26.3971L17.5183 26.4193L17.6089 26.0044L17.1204 25.8978ZM4.61628 19.6097L4.12818 19.5013L4 20.0781L4.59011 20.109L4.61628 19.6097ZM5.27242 16.6571L5.29859 16.1578L4.8761 16.1356L4.78432 16.5486L5.27242 16.6571ZM22.0392 17.5358L22.5273 17.6442L22.6555 17.0674L22.0654 17.0365L22.0392 17.5358ZM21.383 20.4884L21.3569 20.9878L21.7794 21.0099L21.8711 20.5969L21.383 20.4884ZM6.48157 25.3402L5.99308 25.2335L5.86749 25.8087L6.4554 25.8395L6.48157 25.3402ZM11.1981 3.73927L11.2243 3.23995L10.8002 3.21773L10.7096 3.63261L11.1981 3.73927ZM14.1769 3.89538L14.6654 4.00204L14.791 3.42688L14.2031 3.39607L14.1769 3.89538ZM9.46043 25.4963L9.43427 25.9956L9.85834 26.0179L9.94893 25.603L9.46043 25.4963ZM6.27928 12.1013L5.79081 11.9945L5.66507 12.5697L6.25311 12.6006L6.27928 12.1013ZM6.92478 9.14803L6.95095 8.64872L6.52697 8.6265L6.43631 9.04127L6.92478 9.14803ZM23.6915 10.0267L24.18 10.1335L24.3057 9.55824L23.7177 9.52743L23.6915 10.0267ZM23.046 12.98L23.0199 13.4793L23.4439 13.5015L23.5345 13.0867L23.046 12.98ZM14.1415 25.7417L14.63 25.8483L19.3465 4.24737L18.858 4.14071L18.3695 4.03405L13.653 25.635L14.1415 25.7417ZM18.858 4.14071L18.8319 4.64002L21.8107 4.79614L21.8369 4.29682L21.8631 3.79751L18.8842 3.64139L18.858 4.14071ZM21.8369 4.29682L21.3484 4.19016L16.6319 25.7911L17.1204 25.8978L17.6089 26.0044L22.3254 4.40348L21.8369 4.29682ZM17.1204 25.8978L17.1465 25.3985L14.1677 25.2423L14.1415 25.7417L14.1153 26.241L17.0942 26.3971L17.1204 25.8978ZM4.61628 19.6097L5.10437 19.7182L5.76051 16.7655L5.27242 16.6571L4.78432 16.5486L4.12818 19.5013L4.61628 19.6097ZM5.27242 16.6571L5.24625 17.1564L22.013 18.0351L22.0392 17.5358L22.0654 17.0365L5.29859 16.1578L5.27242 16.6571ZM22.0392 17.5358L21.5511 17.4273L20.8949 20.38L21.383 20.4884L21.8711 20.5969L22.5273 17.6442L22.0392 17.5358ZM21.383 20.4884L21.4092 19.9891L4.64245 19.1104L4.61628 19.6097L4.59011 20.109L21.3569 20.9878L21.383 20.4884ZM6.48157 25.3402L6.97006 25.4469L11.6866 3.84593L11.1981 3.73927L10.7096 3.63261L5.99308 25.2335L6.48157 25.3402ZM11.1981 3.73927L11.1719 4.23858L14.1508 4.3947L14.1769 3.89538L14.2031 3.39607L11.2243 3.23995L11.1981 3.73927ZM14.1769 3.89538L13.6885 3.78872L8.97194 25.3897L9.46043 25.4963L9.94893 25.603L14.6654 4.00204L14.1769 3.89538ZM9.46043 25.4963L9.4866 24.997L6.50774 24.8409L6.48157 25.3402L6.4554 25.8395L9.43427 25.9956L9.46043 25.4963ZM6.27928 12.1013L6.76774 12.208L7.41325 9.2548L6.92478 9.14803L6.43631 9.04127L5.79081 11.9945L6.27928 12.1013ZM6.92478 9.14803L6.89861 9.64735L23.6654 10.5261L23.6915 10.0267L23.7177 9.52743L6.95095 8.64872L6.92478 9.14803ZM23.6915 10.0267L23.2031 9.91997L22.5576 12.8732L23.046 12.98L23.5345 13.0867L24.18 10.1335L23.6915 10.0267ZM23.046 12.98L23.0722 12.4806L6.30545 11.6019L6.27928 12.1013L6.25311 12.6006L23.0199 13.4793L23.046 12.98ZM38.0942 0.779209L38.5935 0.805377L38.6197 0.306062L38.1204 0.279894L38.0942 0.779209ZM36.724 26.9251L36.6978 27.4245L37.1971 27.4506L37.2233 26.9513L36.724 26.9251ZM31.1961 26.6354L30.6967 26.6093L30.6706 27.1086L31.1699 27.1348L31.1961 26.6354ZM32.2913 5.73656L32.7906 5.76273L32.8168 5.26342L32.3175 5.23725L32.2913 5.73656ZM32.1381 5.72853L32.1643 5.22922L32.0207 5.2217L31.8951 5.29157L32.1381 5.72853ZM25.9539 9.16811L25.4546 9.14195L25.4073 10.0443L26.1969 9.60508L25.9539 9.16811ZM26.2108 4.26575L25.9658 3.82989L25.7259 3.96474L25.7115 4.23958L26.2108 4.26575ZM32.8982 0.506899L32.9244 0.00758395L32.7796 -3.54122e-06L32.6532 0.0710324L32.8982 0.506899ZM38.0942 0.779209L37.5949 0.753041L36.2247 26.899L36.724 26.9251L37.2233 26.9513L38.5935 0.805377L38.0942 0.779209ZM36.724 26.9251L36.7501 26.4258L31.2222 26.1361L31.1961 26.6354L31.1699 27.1348L36.6978 27.4245L36.724 26.9251ZM31.1961 26.6354L31.6954 26.6616L32.7906 5.76273L32.2913 5.73656L31.792 5.7104L30.6967 26.6093L31.1961 26.6354ZM32.2913 5.73656L32.3175 5.23725L32.1643 5.22922L32.1381 5.72853L32.112 6.22785L32.2651 6.23588L32.2913 5.73656ZM32.1381 5.72853L31.8951 5.29157L25.7109 8.73115L25.9539 9.16811L26.1969 9.60508L32.3812 6.1655L32.1381 5.72853ZM25.9539 9.16811L26.4532 9.19428L26.7101 4.29192L26.2108 4.26575L25.7115 4.23958L25.4546 9.14195L25.9539 9.16811ZM26.2108 4.26575L26.4558 4.70162L33.1432 0.942765L32.8982 0.506899L32.6532 0.0710324L25.9658 3.82989L26.2108 4.26575ZM32.8982 0.506899L32.8721 1.00621L38.0681 1.27852L38.0942 0.779209L38.1204 0.279894L32.9244 0.00758395L32.8982 0.506899Z" fill="white" fill-opacity="0.97" mask="url(#path-1-outside-1_1_32)"/>
</g>
<defs>
<filter id="filter0_d_1_32" x="0" y="0" width="42.6197" height="35.4506" filterUnits="userSpaceOnUse" color-interpolation-filters="sRGB">
<feFlood flood-opacity="0" result="BackgroundImageFix"/>
<feColorMatrix in="SourceAlpha" type="matrix" values="0 0 0 0 0 0 0 0 0 0 0 0 0 0 0 0 0 0 127 0" result="hardAlpha"/>
<feOffset dy="4"/>
<feGaussianBlur stdDeviation="2"/>
<feComposite in2="hardAlpha" operator="out"/>
<feColorMatrix type="matrix" values="0 0 0 0 0 0 0 0 0 0 0 0 0 0 0 0 0 0 0.25 0"/>
<feBlend mode="normal" in2="BackgroundImageFix" result="effect1_dropShadow_1_32"/>
<feBlend mode="normal" in="SourceGraphic" in2="effect1_dropShadow_1_32" result="shape"/>
</filter>
<linearGradient id="paint0_linear_1_32" x1="20.6633" y1="-9.26505" x2="21.0498" y2="20.5051" gradientUnits="userSpaceOnUse">
<stop stop-color="#5C8FF7"/>
<stop offset="1" stop-color="#276AEE"/>
</linearGradient>
</defs>
</svg>
