<svg width="45" height="37" viewBox="0 0 45 37" fill="none" xmlns="http://www.w3.org/2000/svg">
<g filter="url(#filter0_d_1_53)">
<mask id="path-1-outside-1_1_53" maskUnits="userSpaceOnUse" x="2.89887" y="-2.36585" width="39.4657" height="30.949" fill="black">
<rect fill="white" x="2.89887" y="-2.36585" width="39.4657" height="30.949"/>
<path d="M12.2907 26.0852L16.0639 8.80448L17.7661 8.89369L13.9929 26.1744L12.2907 26.0852ZM4.61172 20.8352L4.97328 19.1473L17.9782 19.8289L17.6166 21.5168L4.61172 20.8352ZM6.16271 25.7641L9.93592 8.48333L11.6381 8.57254L7.86492 25.8533L6.16271 25.7641ZM5.95063 14.8289L6.31219 13.141L19.3171 13.8225L18.9555 15.5105L5.95063 14.8289ZM21.189 26.5516L21.3977 22.5684L31.1562 14.4387C31.9878 13.7142 32.6878 13.0596 33.2561 12.4749C33.833 11.8907 34.2772 11.3123 34.5888 10.7397C34.9009 10.1587 35.075 9.52344 35.1112 8.83405C35.1513 8.06805 35.0114 7.3993 34.6914 6.8278C34.3719 6.24778 33.9178 5.79299 33.3292 5.46344C32.7409 5.12537 32.0638 4.93627 31.2978 4.89612C30.4978 4.85419 29.7914 4.97933 29.1787 5.27152C28.566 5.56372 28.0821 6.00349 27.727 6.59082C27.3719 7.17816 27.1725 7.88886 27.1288 8.72295L21.8817 8.44796C21.9714 6.73724 22.4364 5.27236 23.277 4.05331C24.1175 2.83427 25.2537 1.91662 26.6857 1.30038C28.1176 0.684136 29.7442 0.423741 31.5656 0.519195C33.438 0.617324 35.0505 1.03467 36.403 1.77124C37.7645 2.49974 38.8019 3.4673 39.5153 4.6739C40.2287 5.8805 40.5459 7.23703 40.467 8.74349C40.4152 9.73077 40.1684 10.695 39.7265 11.6363C39.2931 12.5779 38.552 13.6102 37.5032 14.7329C36.4548 15.8472 34.9898 17.1744 33.1084 18.7144L29.0951 22.2549L29.0858 22.4336L40.065 23.009L39.8282 27.5284L21.189 26.5516Z"/>
</mask>
<path d="M12.2907 26.0852L16.0639 8.80448L17.7661 8.89369L13.9929 26.1744L12.2907 26.0852ZM4.61172 20.8352L4.97328 19.1473L17.9782 19.8289L17.6166 21.5168L4.61172 20.8352ZM6.16271 25.7641L9.93592 8.48333L11.6381 8.57254L7.86492 25.8533L6.16271 25.7641ZM5.95063 14.8289L6.31219 13.141L19.3171 13.8225L18.9555 15.5105L5.95063 14.8289ZM21.189 26.5516L21.3977 22.5684L31.1562 14.4387C31.9878 13.7142 32.6878 13.0596 33.2561 12.4749C33.833 11.8907 34.2772 11.3123 34.5888 10.7397C34.9009 10.1587 35.075 9.52344 35.1112 8.83405C35.1513 8.06805 35.0114 7.3993 34.6914 6.8278C34.3719 6.24778 33.9178 5.79299 33.3292 5.46344C32.7409 5.12537 32.0638 4.93627 31.2978 4.89612C30.4978 4.85419 29.7914 4.97933 29.1787 5.27152C28.566 5.56372 28.0821 6.00349 27.727 6.59082C27.3719 7.17816 27.1725 7.88886 27.1288 8.72295L21.8817 8.44796C21.9714 6.73724 22.4364 5.27236 23.277 4.05331C24.1175 2.83427 25.2537 1.91662 26.6857 1.30038C28.1176 0.684136 29.7442 0.423741 31.5656 0.519195C33.438 0.617324 35.0505 1.03467 36.403 1.77124C37.7645 2.49974 38.8019 3.4673 39.5153 4.6739C40.2287 5.8805 40.5459 7.23703 40.467 8.74349C40.4152 9.73077 40.1684 10.695 39.7265 11.6363C39.2931 12.5779 38.552 13.6102 37.5032 14.7329C36.4548 15.8472 34.9898 17.1744 33.1084 18.7144L29.0951 22.2549L29.0858 22.4336L40.065 23.009L39.8282 27.5284L21.189 26.5516Z" fill="url(#paint0_linear_1_53)" shape-rendering="crispEdges"/>
<path d="M12.2907 26.0852L16.0639 8.80448L17.7661 8.89369L13.9929 26.1744L12.2907 26.0852ZM4.61172 20.8352L4.97328 19.1473L17.9782 19.8289L17.6166 21.5168L4.61172 20.8352ZM6.16271 25.7641L9.93592 8.48333L11.6381 8.57254L7.86492 25.8533L6.16271 25.7641ZM5.95063 14.8289L6.31219 13.141L19.3171 13.8225L18.9555 15.5105L5.95063 14.8289ZM21.189 26.5516L21.3977 22.5684L31.1562 14.4387C31.9878 13.7142 32.6878 13.0596 33.2561 12.4749C33.833 11.8907 34.2772 11.3123 34.5888 10.7397C34.9009 10.1587 35.075 9.52344 35.1112 8.83405C35.1513 8.06805 35.0114 7.3993 34.6914 6.8278C34.3719 6.24778 33.9178 5.79299 33.3292 5.46344C32.7409 5.12537 32.0638 4.93627 31.2978 4.89612C30.4978 4.85419 29.7914 4.97933 29.1787 5.27152C28.566 5.56372 28.0821 6.00349 27.727 6.59082C27.3719 7.17816 27.1725 7.88886 27.1288 8.72295L21.8817 8.44796C21.9714 6.73724 22.4364 5.27236 23.277 4.05331C24.1175 2.83427 25.2537 1.91662 26.6857 1.30038C28.1176 0.684136 29.7442 0.423741 31.5656 0.519195C33.438 0.617324 35.0505 1.03467 36.403 1.77124C37.7645 2.49974 38.8019 3.4673 39.5153 4.6739C40.2287 5.8805 40.5459 7.23703 40.467 8.74349C40.4152 9.73077 40.1684 10.695 39.7265 11.6363C39.2931 12.5779 38.552 13.6102 37.5032 14.7329C36.4548 15.8472 34.9898 17.1744 33.1084 18.7144L29.0951 22.2549L29.0858 22.4336L40.065 23.009L39.8282 27.5284L21.189 26.5516Z" fill="#E7E6E6" fill-opacity="0.55" shape-rendering="crispEdges"/>
<path d="M12.2907 26.0852L11.8022 25.9786L11.6766 26.5537L12.2645 26.5845L12.2907 26.0852ZM16.0639 8.80448L16.09 8.30516L15.666 8.28294L15.5754 8.69782L16.0639 8.80448ZM17.7661 8.89369L18.2546 9.00035L18.3802 8.42518L17.7923 8.39437L17.7661 8.89369ZM13.9929 26.1744L13.9667 26.6738L14.3908 26.696L14.4814 26.2811L13.9929 26.1744ZM4.61172 20.8352L4.12281 20.7305L4 21.3039L4.58555 21.3346L4.61172 20.8352ZM4.97328 19.1473L4.99945 18.648L4.57367 18.6257L4.48437 19.0426L4.97328 19.1473ZM17.9782 19.8289L18.4671 19.9336L18.5899 19.3602L18.0043 19.3296L17.9782 19.8289ZM17.6166 21.5168L17.5904 22.0161L18.0162 22.0384L18.1055 21.6215L17.6166 21.5168ZM6.16271 25.7641L5.67422 25.6574L5.54863 26.2326L6.13654 26.2634L6.16271 25.7641ZM9.93592 8.48333L9.96209 7.98401L9.53802 7.96179L9.44743 8.37667L9.93592 8.48333ZM11.6381 8.57254L12.1266 8.6792L12.2522 8.10403L11.6643 8.07322L11.6381 8.57254ZM7.86492 25.8533L7.83875 26.3526L8.26282 26.3748L8.35341 25.96L7.86492 25.8533ZM5.95063 14.8289L5.46172 14.7242L5.33891 15.2975L5.92446 15.3282L5.95063 14.8289ZM6.31219 13.141L6.33836 12.6417L5.91258 12.6193L5.82328 13.0362L6.31219 13.141ZM19.3171 13.8225L19.806 13.9273L19.9288 13.3539L19.3432 13.3232L19.3171 13.8225ZM18.9555 15.5105L18.9293 16.0098L19.3551 16.0321L19.4444 15.6152L18.9555 15.5105ZM12.2907 26.0852L12.7792 26.1919L16.5524 8.91114L16.0639 8.80448L15.5754 8.69782L11.8022 25.9786L12.2907 26.0852ZM16.0639 8.80448L16.0377 9.30379L17.7399 9.393L17.7661 8.89369L17.7923 8.39437L16.09 8.30516L16.0639 8.80448ZM17.7661 8.89369L17.2776 8.78703L13.5044 26.0678L13.9929 26.1744L14.4814 26.2811L18.2546 9.00035L17.7661 8.89369ZM13.9929 26.1744L14.019 25.6751L12.3168 25.5859L12.2907 26.0852L12.2645 26.5845L13.9667 26.6738L13.9929 26.1744ZM4.61172 20.8352L5.10063 20.94L5.46219 19.252L4.97328 19.1473L4.48437 19.0426L4.12281 20.7305L4.61172 20.8352ZM4.97328 19.1473L4.94711 19.6466L17.952 20.3282L17.9782 19.8289L18.0043 19.3296L4.99945 18.648L4.97328 19.1473ZM17.9782 19.8289L17.4893 19.7241L17.1277 21.4121L17.6166 21.5168L18.1055 21.6215L18.4671 19.9336L17.9782 19.8289ZM17.6166 21.5168L17.6428 21.0175L4.63789 20.3359L4.61172 20.8352L4.58555 21.3346L17.5904 22.0161L17.6166 21.5168ZM6.16271 25.7641L6.6512 25.8707L10.4244 8.58999L9.93592 8.48333L9.44743 8.37667L5.67422 25.6574L6.16271 25.7641ZM9.93592 8.48333L9.90975 8.98264L11.612 9.07185L11.6381 8.57254L11.6643 8.07322L9.96209 7.98401L9.93592 8.48333ZM11.6381 8.57254L11.1496 8.46587L7.37643 25.7466L7.86492 25.8533L8.35341 25.96L12.1266 8.6792L11.6381 8.57254ZM7.86492 25.8533L7.89109 25.354L6.18888 25.2648L6.16271 25.7641L6.13654 26.2634L7.83875 26.3526L7.86492 25.8533ZM5.95063 14.8289L6.43954 14.9336L6.8011 13.2457L6.31219 13.141L5.82328 13.0362L5.46172 14.7242L5.95063 14.8289ZM6.31219 13.141L6.28602 13.6403L19.2909 14.3218L19.3171 13.8225L19.3432 13.3232L6.33836 12.6417L6.31219 13.141ZM19.3171 13.8225L18.8282 13.7178L18.4666 15.4057L18.9555 15.5105L19.4444 15.6152L19.806 13.9273L19.3171 13.8225ZM18.9555 15.5105L18.9817 15.0111L5.9768 14.3296L5.95063 14.8289L5.92446 15.3282L18.9293 16.0098L18.9555 15.5105ZM21.189 26.5516L20.6896 26.5254L20.6635 27.0247L21.1628 27.0509L21.189 26.5516ZM21.3977 22.5684L21.0777 22.1842L20.9098 22.3241L20.8984 22.5422L21.3977 22.5684ZM31.1562 14.4387L31.4763 14.823L31.4846 14.8157L31.1562 14.4387ZM33.2561 12.4749L32.9003 12.1236L32.8976 12.1264L33.2561 12.4749ZM34.5888 10.7397L35.028 10.9788L35.0293 10.9763L34.5888 10.7397ZM34.6914 6.8278L34.2535 7.06906L34.2552 7.07205L34.6914 6.8278ZM33.3292 5.46344L33.08 5.89697L33.0849 5.89972L33.3292 5.46344ZM27.727 6.59082L28.1548 6.84951L28.1548 6.84951L27.727 6.59082ZM27.1288 8.72295L27.1026 9.22226L27.6019 9.24843L27.6281 8.74911L27.1288 8.72295ZM21.8817 8.44796L21.3824 8.42179L21.3562 8.92111L21.8555 8.94727L21.8817 8.44796ZM23.277 4.05331L23.6886 4.33713L23.6886 4.33713L23.277 4.05331ZM26.6857 1.30038L26.488 0.841103L26.488 0.841103L26.6857 1.30038ZM36.403 1.77124L36.1639 2.21036L36.1671 2.2121L36.403 1.77124ZM39.5153 4.6739L39.0849 4.92837L39.0849 4.92837L39.5153 4.6739ZM39.7265 11.6363L39.2739 11.4238L39.2723 11.4272L39.7265 11.6363ZM37.5032 14.7329L37.8673 15.0756L37.8685 15.0743L37.5032 14.7329ZM33.1084 18.7144L32.7917 18.3274L32.7845 18.3333L32.7776 18.3394L33.1084 18.7144ZM29.0951 22.2549L28.7643 21.88L28.6068 22.019L28.5958 22.2287L29.0951 22.2549ZM29.0858 22.4336L28.5864 22.4075L28.5603 22.9068L29.0596 22.933L29.0858 22.4336ZM40.065 23.009L40.5643 23.0352L40.5905 22.5359L40.0912 22.5097L40.065 23.009ZM39.8282 27.5284L39.802 28.0277L40.3013 28.0539L40.3275 27.5546L39.8282 27.5284ZM21.189 26.5516L21.6883 26.5777L21.897 22.5946L21.3977 22.5684L20.8984 22.5422L20.6896 26.5254L21.189 26.5516ZM21.3977 22.5684L21.7177 22.9526L31.4762 14.8229L31.1562 14.4387L30.8361 14.0546L21.0777 22.1842L21.3977 22.5684ZM31.1562 14.4387L31.4846 14.8157C32.3233 14.0851 33.0341 13.4208 33.6147 12.8234L33.2561 12.4749L32.8976 12.1264C32.3416 12.6984 31.6523 13.3434 30.8277 14.0617L31.1562 14.4387ZM33.2561 12.4749L33.6119 12.8262C34.2136 12.2168 34.689 11.6015 35.028 10.9788L34.5888 10.7397L34.1497 10.5007C33.8653 11.0231 33.4524 11.5645 32.9003 12.1236L33.2561 12.4749ZM34.5888 10.7397L35.0293 10.9763C35.3779 10.3273 35.5707 9.61971 35.6105 8.86022L35.1112 8.83405L34.6118 8.80788C34.5794 9.42718 34.4239 9.99006 34.1483 10.5031L34.5888 10.7397ZM35.1112 8.83405L35.6105 8.86022C35.6547 8.01634 35.5012 7.25068 35.1277 6.58354L34.6914 6.8278L34.2552 7.07205C34.5216 7.54793 34.6479 8.11977 34.6118 8.80788L35.1112 8.83405ZM34.6914 6.8278L35.1294 6.58655C34.7639 5.92309 34.242 5.40144 33.5734 5.02715L33.3292 5.46344L33.0849 5.89972C33.5937 6.18455 33.9799 6.57247 34.2535 7.06905L34.6914 6.8278ZM33.3292 5.46344L33.5783 5.02993C32.9135 4.64786 32.1581 4.44052 31.324 4.39681L31.2978 4.89612L31.2717 5.39544C31.9695 5.43201 32.5683 5.60288 33.08 5.89694L33.3292 5.46344ZM31.2978 4.89612L31.324 4.39681C30.4558 4.3513 29.6639 4.4862 28.9635 4.82022L29.1787 5.27152L29.3939 5.72283C29.9189 5.47246 30.5398 5.35708 31.2717 5.39544L31.2978 4.89612ZM29.1787 5.27152L28.9635 4.82022C28.2615 5.15496 27.7041 5.66218 27.2991 6.33213L27.727 6.59082L28.1548 6.84951C28.46 6.34479 28.8704 5.97249 29.3939 5.72283L29.1787 5.27152ZM27.727 6.59082L27.2991 6.33213C26.8931 7.00364 26.6765 7.79815 26.6294 8.69678L27.1288 8.72295L27.6281 8.74911C27.6684 7.97957 27.8506 7.35267 28.1548 6.84951L27.727 6.59082ZM27.1288 8.72295L27.1549 8.22363L21.9079 7.94864L21.8817 8.44796L21.8555 8.94727L27.1026 9.22226L27.1288 8.72295ZM21.8817 8.44796L22.381 8.47413C22.4666 6.841 22.9084 5.46875 23.6886 4.33713L23.277 4.05331L22.8653 3.76949C21.9645 5.07597 21.4761 6.63348 21.3824 8.42179L21.8817 8.44796ZM23.277 4.05331L23.6886 4.33713C24.4728 3.19972 25.533 2.34077 26.8833 1.75965L26.6857 1.30038L26.488 0.841103C24.9744 1.49248 23.7621 2.46882 22.8653 3.76949L23.277 4.05331ZM26.6857 1.30038L26.8833 1.75965C28.2337 1.17852 29.7818 0.926394 31.5394 1.01851L31.5656 0.519195L31.5918 0.0198798C29.7067 -0.0789123 28.0015 0.189748 26.488 0.841103L26.6857 1.30038ZM31.5656 0.519195L31.5394 1.01851C33.3532 1.11357 34.8897 1.51642 36.1639 2.21035L36.403 1.77124L36.6422 1.33213C35.2113 0.552922 33.5229 0.121084 31.5918 0.0198798L31.5656 0.519195ZM36.403 1.77124L36.1671 2.2121C37.4564 2.90196 38.4227 3.80838 39.0849 4.92837L39.5153 4.6739L39.9457 4.41943C39.1811 3.12621 38.0726 2.09753 36.6389 1.33039L36.403 1.77124ZM39.5153 4.6739L39.0849 4.92837C39.7444 6.04373 40.0419 7.30131 39.9677 8.71732L40.467 8.74349L40.9663 8.76966C41.05 7.17275 40.7131 5.71727 39.9457 4.41943L39.5153 4.6739ZM40.467 8.74349L39.9677 8.71732C39.9195 9.63675 39.6898 10.538 39.2739 11.4238L39.7265 11.6363L40.1791 11.8488C40.647 10.8521 40.911 9.82479 40.9663 8.76966L40.467 8.74349ZM39.7265 11.6363L39.2723 11.4272C38.8692 12.303 38.166 13.2909 37.1378 14.3916L37.5032 14.7329L37.8685 15.0743C38.938 13.9294 39.717 12.8529 40.1807 11.8453L39.7265 11.6363ZM37.5032 14.7329L37.139 14.3903C36.1115 15.4824 34.6649 16.7942 32.7917 18.3274L33.1084 18.7144L33.4251 19.1013C35.3148 17.5545 36.7981 16.212 37.8673 15.0756L37.5032 14.7329ZM33.1084 18.7144L32.7776 18.3394L28.7643 21.88L29.0951 22.2549L29.4259 22.6299L33.4391 19.0893L33.1084 18.7144ZM29.0951 22.2549L28.5958 22.2287L28.5864 22.4075L29.0858 22.4336L29.5851 22.4598L29.5944 22.2811L29.0951 22.2549ZM29.0858 22.4336L29.0596 22.933L40.0388 23.5084L40.065 23.009L40.0912 22.5097L29.1119 21.9343L29.0858 22.4336ZM40.065 23.009L39.5657 22.9829L39.3288 27.5022L39.8282 27.5284L40.3275 27.5546L40.5643 23.0352L40.065 23.009ZM39.8282 27.5284L39.8543 27.0291L21.2151 26.0523L21.189 26.5516L21.1628 27.0509L39.802 28.0277L39.8282 27.5284Z" fill="white" fill-opacity="0.97" mask="url(#path-1-outside-1_1_53)"/>
</g>
<defs>
<filter id="filter0_d_1_53" x="-7.62939e-06" y="0" width="44.9788" height="36.0539" filterUnits="userSpaceOnUse" color-interpolation-filters="sRGB">
<feFlood flood-opacity="0" result="BackgroundImageFix"/>
<feColorMatrix in="SourceAlpha" type="matrix" values="0 0 0 0 0 0 0 0 0 0 0 0 0 0 0 0 0 0 127 0" result="hardAlpha"/>
<feOffset dy="4"/>
<feGaussianBlur stdDeviation="2"/>
<feComposite in2="hardAlpha" operator="out"/>
<feColorMatrix type="matrix" values="0 0 0 0 0 0 0 0 0 0 0 0 0 0 0 0 0 0 0.25 0"/>
<feBlend mode="normal" in2="BackgroundImageFix" result="effect1_dropShadow_1_53"/>
<feBlend mode="normal" in="SourceGraphic" in2="effect1_dropShadow_1_53" result="shape"/>
</filter>
<linearGradient id="paint0_linear_1_53" x1="4.76619" y1="-4.45042" x2="52.875" y2="1.33076" gradientUnits="userSpaceOnUse">
<stop stop-color="#717171"/>
<stop offset="0.0932979" stop-color="#7B7B7B"/>
<stop offset="0.230387" stop-color="#CBCBCB"/>
<stop offset="0.678823" stop-color="#D1D1D1"/>
<stop offset="0.799224" stop-color="#818181"/>
<stop offset="0.835628" stop-color="#9B9B9B"/>
</linearGradient>
</defs>
</svg>
