<svg width="46" height="36" viewBox="0 0 46 36" fill="none" xmlns="http://www.w3.org/2000/svg">
<g filter="url(#filter0_d_1_65)">
<mask id="path-1-outside-1_1_65" maskUnits="userSpaceOnUse" x="2.89887" y="-2.40502" width="40.4643" height="31.0014" fill="black">
<rect fill="white" x="2.89887" y="-2.40502" width="40.4643" height="31.0014"/>
<path d="M12.2907 26.0461L16.0639 8.76532L17.7661 8.85453L13.9929 26.1353L12.2907 26.0461ZM4.61172 20.7961L4.97328 19.1081L17.9782 19.7897L17.6166 21.4776L4.61172 20.7961ZM6.16271 25.7249L9.93592 8.44416L11.6381 8.53337L7.86492 25.8141L6.16271 25.7249ZM5.95063 14.7897L6.31219 13.1018L19.3171 13.7834L18.9555 15.4713L5.95063 14.7897ZM30.8345 27.3764C28.928 27.2764 27.2473 26.8598 25.7922 26.1264C24.346 25.3849 23.2235 24.4129 22.4246 23.2103C21.6346 21.9997 21.2667 20.632 21.321 19.1072L26.8872 19.3989C26.8878 20.039 27.0669 20.6117 27.4245 21.1169C27.791 21.614 28.2908 22.0114 28.9238 22.3092C29.5568 22.6069 30.2776 22.777 31.0861 22.8194C31.9287 22.8635 32.6813 22.7536 33.3437 22.4896C34.0062 22.2256 34.5342 21.8394 34.9278 21.3309C35.3215 20.8224 35.5363 20.2234 35.5725 19.534C35.6091 18.8361 35.4456 18.2088 35.0822 17.6521C34.7278 17.0873 34.1969 16.6328 33.4895 16.2885C32.7906 15.9446 31.9475 15.7468 30.9603 15.6951L28.5218 15.5673L28.7346 11.5075L31.173 11.6353C32.0071 11.679 32.7509 11.5729 33.4044 11.317C34.0664 11.0615 34.5895 10.6878 34.9737 10.1959C35.3584 9.69542 35.5688 9.10051 35.6049 8.41111C35.6393 7.75576 35.5119 7.17301 35.2229 6.66287C34.9428 6.14466 34.5293 5.7304 33.9823 5.4201C33.4438 5.11024 32.8043 4.93591 32.0638 4.8971C31.3148 4.85785 30.6226 4.95812 29.987 5.19791C29.3519 5.4292 28.8341 5.78184 28.4338 6.25586C28.0334 6.72987 27.8031 7.29814 27.7427 7.96067L22.4446 7.683C22.5491 6.17789 23.0485 4.87269 23.9428 3.76741C24.8371 2.66213 26.0076 1.82309 27.4543 1.2503C28.91 0.669434 30.5315 0.425838 32.3188 0.519508C34.1232 0.614069 35.6848 1.02449 37.0037 1.75076C38.3226 2.47703 39.3274 3.41727 40.0179 4.57146C40.7174 5.7176 41.0268 6.97984 40.946 8.35818C40.8778 9.82253 40.3584 11.02 39.3879 11.9506C38.426 12.8816 37.2061 13.4407 35.7284 13.6278L35.7177 13.8321C37.6282 14.1797 39.0571 14.9246 40.0043 16.0666C40.9605 17.2006 41.3917 18.5802 41.298 20.2053C41.2285 21.6952 40.7293 22.9962 39.8005 24.1082C38.8802 25.2206 37.6452 26.0691 36.0955 26.6535C34.5457 27.238 32.7921 27.479 30.8345 27.3764Z"/>
</mask>
<path d="M12.2907 26.0461L16.0639 8.76532L17.7661 8.85453L13.9929 26.1353L12.2907 26.0461ZM4.61172 20.7961L4.97328 19.1081L17.9782 19.7897L17.6166 21.4776L4.61172 20.7961ZM6.16271 25.7249L9.93592 8.44416L11.6381 8.53337L7.86492 25.8141L6.16271 25.7249ZM5.95063 14.7897L6.31219 13.1018L19.3171 13.7834L18.9555 15.4713L5.95063 14.7897ZM30.8345 27.3764C28.928 27.2764 27.2473 26.8598 25.7922 26.1264C24.346 25.3849 23.2235 24.4129 22.4246 23.2103C21.6346 21.9997 21.2667 20.632 21.321 19.1072L26.8872 19.3989C26.8878 20.039 27.0669 20.6117 27.4245 21.1169C27.791 21.614 28.2908 22.0114 28.9238 22.3092C29.5568 22.6069 30.2776 22.777 31.0861 22.8194C31.9287 22.8635 32.6813 22.7536 33.3437 22.4896C34.0062 22.2256 34.5342 21.8394 34.9278 21.3309C35.3215 20.8224 35.5363 20.2234 35.5725 19.534C35.6091 18.8361 35.4456 18.2088 35.0822 17.6521C34.7278 17.0873 34.1969 16.6328 33.4895 16.2885C32.7906 15.9446 31.9475 15.7468 30.9603 15.6951L28.5218 15.5673L28.7346 11.5075L31.173 11.6353C32.0071 11.679 32.7509 11.5729 33.4044 11.317C34.0664 11.0615 34.5895 10.6878 34.9737 10.1959C35.3584 9.69542 35.5688 9.10051 35.6049 8.41111C35.6393 7.75576 35.5119 7.17301 35.2229 6.66287C34.9428 6.14466 34.5293 5.7304 33.9823 5.4201C33.4438 5.11024 32.8043 4.93591 32.0638 4.8971C31.3148 4.85785 30.6226 4.95812 29.987 5.19791C29.3519 5.4292 28.8341 5.78184 28.4338 6.25586C28.0334 6.72987 27.8031 7.29814 27.7427 7.96067L22.4446 7.683C22.5491 6.17789 23.0485 4.87269 23.9428 3.76741C24.8371 2.66213 26.0076 1.82309 27.4543 1.2503C28.91 0.669434 30.5315 0.425838 32.3188 0.519508C34.1232 0.614069 35.6848 1.02449 37.0037 1.75076C38.3226 2.47703 39.3274 3.41727 40.0179 4.57146C40.7174 5.7176 41.0268 6.97984 40.946 8.35818C40.8778 9.82253 40.3584 11.02 39.3879 11.9506C38.426 12.8816 37.2061 13.4407 35.7284 13.6278L35.7177 13.8321C37.6282 14.1797 39.0571 14.9246 40.0043 16.0666C40.9605 17.2006 41.3917 18.5802 41.298 20.2053C41.2285 21.6952 40.7293 22.9962 39.8005 24.1082C38.8802 25.2206 37.6452 26.0691 36.0955 26.6535C34.5457 27.238 32.7921 27.479 30.8345 27.3764Z" fill="url(#paint0_linear_1_65)" shape-rendering="crispEdges"/>
<path d="M12.2907 26.0461L11.8022 25.9394L11.6766 26.5146L12.2645 26.5454L12.2907 26.0461ZM16.0639 8.76532L16.09 8.266L15.666 8.24378L15.5754 8.65866L16.0639 8.76532ZM17.7661 8.85453L18.2546 8.96119L18.3802 8.38602L17.7923 8.35521L17.7661 8.85453ZM13.9929 26.1353L13.9667 26.6346L14.3908 26.6568L14.4814 26.2419L13.9929 26.1353ZM4.61172 20.7961L4.12281 20.6914L4 21.2647L4.58555 21.2954L4.61172 20.7961ZM4.97328 19.1081L4.99945 18.6088L4.57367 18.5865L4.48437 19.0034L4.97328 19.1081ZM17.9782 19.7897L18.4671 19.8944L18.5899 19.3211L18.0043 19.2904L17.9782 19.7897ZM17.6166 21.4776L17.5904 21.977L18.0162 21.9993L18.1055 21.5824L17.6166 21.4776ZM6.16271 25.7249L5.67422 25.6183L5.54863 26.1934L6.13654 26.2242L6.16271 25.7249ZM9.93592 8.44416L9.96209 7.94485L9.53802 7.92263L9.44743 8.3375L9.93592 8.44416ZM11.6381 8.53337L12.1266 8.64003L12.2522 8.06487L11.6643 8.03406L11.6381 8.53337ZM7.86492 25.8141L7.83875 26.3134L8.26282 26.3357L8.35341 25.9208L7.86492 25.8141ZM5.95063 14.7897L5.46172 14.685L5.33891 15.2584L5.92446 15.2891L5.95063 14.7897ZM6.31219 13.1018L6.33836 12.6025L5.91258 12.5802L5.82328 12.9971L6.31219 13.1018ZM19.3171 13.7834L19.806 13.8881L19.9288 13.3147L19.3432 13.284L19.3171 13.7834ZM18.9555 15.4713L18.9293 15.9706L19.3551 15.9929L19.4444 15.576L18.9555 15.4713ZM12.2907 26.0461L12.7792 26.1527L16.5524 8.87198L16.0639 8.76532L15.5754 8.65866L11.8022 25.9394L12.2907 26.0461ZM16.0639 8.76532L16.0377 9.26463L17.7399 9.35384L17.7661 8.85453L17.7923 8.35521L16.09 8.266L16.0639 8.76532ZM17.7661 8.85453L17.2776 8.74787L13.5044 26.0286L13.9929 26.1353L14.4814 26.2419L18.2546 8.96119L17.7661 8.85453ZM13.9929 26.1353L14.019 25.636L12.3168 25.5468L12.2907 26.0461L12.2645 26.5454L13.9667 26.6346L13.9929 26.1353ZM4.61172 20.7961L5.10063 20.9008L5.46219 19.2129L4.97328 19.1081L4.48437 19.0034L4.12281 20.6914L4.61172 20.7961ZM4.97328 19.1081L4.94711 19.6075L17.952 20.289L17.9782 19.7897L18.0043 19.2904L4.99945 18.6088L4.97328 19.1081ZM17.9782 19.7897L17.4893 19.685L17.1277 21.3729L17.6166 21.4776L18.1055 21.5824L18.4671 19.8944L17.9782 19.7897ZM17.6166 21.4776L17.6428 20.9783L4.63789 20.2968L4.61172 20.7961L4.58555 21.2954L17.5904 21.977L17.6166 21.4776ZM6.16271 25.7249L6.6512 25.8316L10.4244 8.55083L9.93592 8.44416L9.44743 8.3375L5.67422 25.6183L6.16271 25.7249ZM9.93592 8.44416L9.90975 8.94348L11.612 9.03269L11.6381 8.53337L11.6643 8.03406L9.96209 7.94485L9.93592 8.44416ZM11.6381 8.53337L11.1496 8.42671L7.37643 25.7075L7.86492 25.8141L8.35341 25.9208L12.1266 8.64003L11.6381 8.53337ZM7.86492 25.8141L7.89109 25.3148L6.18888 25.2256L6.16271 25.7249L6.13654 26.2242L7.83875 26.3134L7.86492 25.8141ZM5.95063 14.7897L6.43954 14.8945L6.8011 13.2065L6.31219 13.1018L5.82328 12.9971L5.46172 14.685L5.95063 14.7897ZM6.31219 13.1018L6.28602 13.6011L19.2909 14.2827L19.3171 13.7834L19.3432 13.284L6.33836 12.6025L6.31219 13.1018ZM19.3171 13.7834L18.8282 13.6786L18.4666 15.3666L18.9555 15.4713L19.4444 15.576L19.806 13.8881L19.3171 13.7834ZM18.9555 15.4713L18.9817 14.972L5.9768 14.2904L5.95063 14.7897L5.92446 15.2891L18.9293 15.9706L18.9555 15.4713ZM25.7922 26.1264L25.564 26.5713L25.5671 26.5729L25.7922 26.1264ZM22.4246 23.2103L22.0058 23.4836L22.0081 23.487L22.4246 23.2103ZM21.321 19.1072L21.3472 18.6079L20.8394 18.5813L20.8213 19.0894L21.321 19.1072ZM26.8872 19.3989L27.3872 19.3984L27.3868 18.9244L26.9134 18.8996L26.8872 19.3989ZM27.4245 21.1169L27.0163 21.4058L27.022 21.4136L27.4245 21.1169ZM28.9238 22.3092L28.711 22.7616L28.711 22.7616L28.9238 22.3092ZM33.3437 22.4896L33.1586 22.0251L33.1586 22.0251L33.3437 22.4896ZM34.9278 21.3309L35.3232 21.6369L35.3232 21.6369L34.9278 21.3309ZM35.0822 17.6521L34.6587 17.9179L34.6635 17.9254L35.0822 17.6521ZM33.4895 16.2885L33.2687 16.7371L33.2707 16.738L33.4895 16.2885ZM28.5218 15.5673L28.0225 15.5411L27.9964 16.0404L28.4957 16.0666L28.5218 15.5673ZM28.7346 11.5075L28.7608 11.0082L28.2615 10.982L28.2353 11.4813L28.7346 11.5075ZM33.4044 11.317L33.2244 10.8505L33.2221 10.8514L33.4044 11.317ZM34.9737 10.1959L35.3678 10.5036L35.3701 10.5006L34.9737 10.1959ZM35.2229 6.66287L34.7829 6.90065L34.7879 6.90935L35.2229 6.66287ZM33.9823 5.4201L33.7329 5.85348L33.7356 5.855L33.9823 5.4201ZM29.987 5.19791L30.1581 5.66777L30.1635 5.66573L29.987 5.19791ZM28.4338 6.25586L28.8157 6.57849L28.8157 6.57849L28.4338 6.25586ZM27.7427 7.96067L27.7166 8.45998L28.197 8.48516L28.2407 8.006L27.7427 7.96067ZM22.4446 7.683L21.9458 7.64838L21.9106 8.1557L22.4184 8.18232L22.4446 7.683ZM23.9428 3.76741L24.3315 4.08191L24.3315 4.08191L23.9428 3.76741ZM27.4543 1.2503L27.6384 1.71519L27.6396 1.71469L27.4543 1.2503ZM37.0037 1.75076L37.2449 1.31277L37.2449 1.31277L37.0037 1.75076ZM40.0179 4.57146L39.5888 4.82818L39.5911 4.83194L40.0179 4.57146ZM40.946 8.35818L40.4468 8.32893L40.4465 8.33492L40.946 8.35818ZM39.3879 11.9506L39.0419 11.5897L39.0402 11.5913L39.3879 11.9506ZM35.7284 13.6278L35.6656 13.1318L35.2509 13.1843L35.2291 13.6017L35.7284 13.6278ZM35.7177 13.8321L35.2184 13.8059L35.1953 14.2453L35.6282 14.324L35.7177 13.8321ZM40.0043 16.0666L39.6195 16.3858L39.6221 16.3889L40.0043 16.0666ZM41.298 20.2053L40.7988 20.1766L40.7986 20.182L41.298 20.2053ZM39.8005 24.1082L39.4168 23.7876L39.4153 23.7895L39.8005 24.1082ZM36.0955 26.6535L35.919 26.1857L35.919 26.1857L36.0955 26.6535ZM30.8345 27.3764L30.8607 26.877C29.0117 26.7801 27.4007 26.3772 26.0172 25.6799L25.7922 26.1264L25.5671 26.5729C27.0938 27.3424 28.8444 27.7727 30.8084 27.8757L30.8345 27.3764ZM25.7922 26.1264L26.0203 25.6815C24.6406 24.974 23.5869 24.0563 22.841 22.9336L22.4246 23.2103L22.0081 23.487C22.8601 24.7694 24.0515 25.7958 25.5641 26.5713L25.7922 26.1264ZM22.4246 23.2103L22.8433 22.9371C22.1129 21.8178 21.7698 20.5528 21.8207 19.125L21.321 19.1072L20.8213 19.0894C20.7636 20.7112 21.1563 22.1817 22.0058 23.4836L22.4246 23.2103ZM21.321 19.1072L21.2949 19.6065L26.8611 19.8982L26.8872 19.3989L26.9134 18.8996L21.3472 18.6079L21.321 19.1072ZM26.8872 19.3989L26.3872 19.3994C26.3879 20.139 26.597 20.8132 27.0164 21.4057L27.4245 21.1169L27.8326 20.828C27.5369 20.4102 27.3877 19.939 27.3872 19.3984L26.8872 19.3989ZM27.4245 21.1169L27.022 21.4136C27.4441 21.986 28.0129 22.4333 28.711 22.7616L28.9238 22.3092L29.1366 21.8567C28.5687 21.5896 28.138 21.242 27.8269 20.8202L27.4245 21.1169ZM28.9238 22.3092L28.711 22.7616C29.4111 23.0909 30.1968 23.2734 31.06 23.3187L31.0861 22.8194L31.1123 22.32C30.3584 22.2805 29.7026 22.1229 29.1366 21.8567L28.9238 22.3092ZM31.0861 22.8194L31.06 23.3187C31.9616 23.3659 32.7881 23.2493 33.5288 22.9541L33.3437 22.4896L33.1586 22.0251C32.5744 22.2579 31.8959 22.3611 31.1123 22.32L31.0861 22.8194ZM33.3437 22.4896L33.5288 22.9541C34.265 22.6607 34.8691 22.2236 35.3232 21.6369L34.9278 21.3309L34.5325 21.0248C34.1993 21.4552 33.7474 21.7905 33.1586 22.0251L33.3437 22.4896ZM34.9278 21.3309L35.3232 21.6369C35.7838 21.0419 36.0307 20.3434 36.0718 19.5602L35.5725 19.534L35.0732 19.5079C35.0419 20.1034 34.8591 20.6029 34.5325 21.0248L34.9278 21.3309ZM35.5725 19.534L36.0718 19.5602C36.1136 18.7622 35.9253 18.029 35.5009 17.3788L35.0822 17.6521L34.6635 17.9254C34.9659 18.3886 35.1045 18.91 35.0732 19.5079L35.5725 19.534ZM35.0822 17.6521L35.5057 17.3863C35.0932 16.7291 34.4844 16.2167 33.7083 15.8389L33.4895 16.2885L33.2707 16.738C33.9093 17.0489 34.3623 17.4456 34.6587 17.9179L35.0822 17.6521ZM33.4895 16.2885L33.7102 15.8398C32.9366 15.4592 32.0238 15.2501 30.9864 15.1957L30.9603 15.6951L30.9341 16.1944C31.8713 16.2435 32.6446 16.43 33.2687 16.7371L33.4895 16.2885ZM30.9603 15.6951L30.9864 15.1957L28.548 15.0679L28.5218 15.5673L28.4957 16.0666L30.9341 16.1944L30.9603 15.6951ZM28.5218 15.5673L29.0212 15.5934L29.2339 11.5337L28.7346 11.5075L28.2353 11.4813L28.0225 15.5411L28.5218 15.5673ZM28.7346 11.5075L28.7084 12.0068L31.1468 12.1346L31.173 11.6353L31.1992 11.136L28.7608 11.0082L28.7346 11.5075ZM31.173 11.6353L31.1468 12.1346C32.0387 12.1813 32.8555 12.0689 33.5867 11.7825L33.4044 11.317L33.2221 10.8514C32.6463 11.0769 31.9755 11.1767 31.1992 11.136L31.173 11.6353ZM33.4044 11.317L33.5844 11.7834C34.319 11.4999 34.9206 11.0762 35.3678 10.5036L34.9737 10.1959L34.5797 9.88809C34.2584 10.2994 33.8138 10.623 33.2244 10.8505L33.4044 11.317ZM34.9737 10.1959L35.3701 10.5006C35.8223 9.91232 36.0633 9.21788 36.1042 8.43728L35.6049 8.41111L35.1056 8.38494C35.0743 8.98313 34.8945 9.47853 34.5773 9.89115L34.9737 10.1959ZM35.6049 8.41111L36.1042 8.43728C36.143 7.69848 35.9994 7.01908 35.6579 6.41639L35.2229 6.66287L34.7879 6.90935C35.0245 7.32695 35.1356 7.81304 35.1056 8.38494L35.6049 8.41111ZM35.2229 6.66287L35.6628 6.42513C35.335 5.81874 34.8518 5.33853 34.229 4.9852L33.9823 5.4201L33.7356 5.855C34.2067 6.12227 34.5506 6.47058 34.783 6.90061L35.2229 6.66287ZM33.9823 5.4201L34.2316 4.98672C33.613 4.63074 32.8939 4.43992 32.09 4.39779L32.0638 4.8971L32.0376 5.39642C32.7146 5.4319 33.2746 5.58975 33.7329 5.85348L33.9823 5.4201ZM32.0638 4.8971L32.09 4.39779C31.2792 4.3553 30.5172 4.46349 29.8105 4.7301L29.987 5.19791L30.1635 5.66573C30.728 5.45276 31.3505 5.36041 32.0376 5.39642L32.0638 4.8971ZM29.987 5.19791L29.8159 4.72809C29.1064 4.98647 28.5133 5.38673 28.0518 5.93323L28.4338 6.25586L28.8157 6.57849C29.1549 6.17696 29.5973 5.87193 30.1581 5.66773L29.987 5.19791ZM28.4338 6.25586L28.0518 5.93323C27.5804 6.49136 27.3137 7.15845 27.2448 7.91533L27.7427 7.96067L28.2407 8.006C28.2924 7.43784 28.4864 6.96839 28.8157 6.57849L28.4338 6.25586ZM27.7427 7.96067L27.7689 7.46135L22.4708 7.18369L22.4446 7.683L22.4184 8.18232L27.7166 8.45998L27.7427 7.96067ZM22.4446 7.683L22.9434 7.71763C23.0412 6.30827 23.5058 5.1024 24.3315 4.08191L23.9428 3.76741L23.5541 3.45291C22.5912 4.64298 22.0569 6.0475 21.9458 7.64838L22.4446 7.683ZM23.9428 3.76741L24.3315 4.08191C25.1666 3.04974 26.2639 2.25937 27.6384 1.71518L27.4543 1.2503L27.2703 0.785406C25.7513 1.38681 24.5075 2.27452 23.5541 3.45291L23.9428 3.76741ZM27.4543 1.2503L27.6396 1.71469C29.0193 1.16417 30.5673 0.9284 32.2927 1.01882L32.3188 0.519508L32.345 0.0201931C30.4957 -0.0767229 28.8008 0.174694 27.269 0.785901L27.4543 1.2503ZM32.3188 0.519508L32.2927 1.01882C34.0365 1.11021 35.5217 1.50545 36.7625 2.18874L37.0037 1.75076L37.2449 1.31277C35.8479 0.543522 34.2098 0.117925 32.345 0.0201931L32.3188 0.519508ZM37.0037 1.75076L36.7625 2.18874C38.0134 2.87752 38.949 3.75875 39.5888 4.82817L40.0179 4.57146L40.447 4.31476C39.7057 3.07578 38.6319 2.07654 37.2449 1.31277L37.0037 1.75076ZM40.0179 4.57146L39.5911 4.83194C40.236 5.88854 40.5218 7.04921 40.4468 8.32893L40.946 8.35818L41.4451 8.38743C41.5317 6.91046 41.1988 5.54666 40.4447 4.31099L40.0179 4.57146ZM40.946 8.35818L40.4465 8.33492C40.3837 9.68385 39.9111 10.7562 39.0419 11.5897L39.3879 11.9506L39.734 12.3115C40.8058 11.2838 41.3719 9.96121 41.4454 8.38145L40.946 8.35818ZM39.3879 11.9506L39.0402 11.5913C38.1647 12.4387 37.0487 12.9567 35.6656 13.1318L35.7284 13.6278L35.7912 14.1239C37.3635 13.9248 38.6873 13.3246 39.7357 12.3099L39.3879 11.9506ZM35.7284 13.6278L35.2291 13.6017L35.2184 13.8059L35.7177 13.8321L36.217 13.8583L36.2277 13.654L35.7284 13.6278ZM35.7177 13.8321L35.6282 14.324C37.4593 14.6572 38.7679 15.3591 39.6195 16.3858L40.0043 16.0666L40.3892 15.7474C39.3463 14.4901 37.7972 13.7023 35.8072 13.3402L35.7177 13.8321ZM40.0043 16.0666L39.6221 16.3889C40.4875 17.4152 40.886 18.6655 40.7989 20.1766L41.298 20.2053L41.7972 20.2341C41.8975 18.4948 41.4336 16.986 40.3866 15.7443L40.0043 16.0666ZM41.298 20.2053L40.7986 20.182C40.734 21.5663 40.2734 22.762 39.4168 23.7876L39.8005 24.1082L40.1843 24.4287C41.1852 23.2303 41.723 21.8241 41.7975 20.2287L41.298 20.2053ZM39.8005 24.1082L39.4153 23.7895C38.5582 24.8255 37.3995 25.6274 35.919 26.1857L36.0955 26.6535L36.2719 27.1214C37.8909 26.5108 39.2023 25.6157 40.1858 24.4269L39.8005 24.1082ZM36.0955 26.6535L35.919 26.1857C34.4447 26.7417 32.7617 26.9767 30.8607 26.877L30.8345 27.3764L30.8084 27.8757C32.8224 27.9812 34.6468 27.7343 36.2719 27.1214L36.0955 26.6535Z" fill="white" fill-opacity="0.97" mask="url(#path-1-outside-1_1_65)"/>
</g>
<defs>
<filter id="filter0_d_1_65" x="-7.62939e-06" y="0" width="45.8106" height="35.8993" filterUnits="userSpaceOnUse" color-interpolation-filters="sRGB">
<feFlood flood-opacity="0" result="BackgroundImageFix"/>
<feColorMatrix in="SourceAlpha" type="matrix" values="0 0 0 0 0 0 0 0 0 0 0 0 0 0 0 0 0 0 127 0" result="hardAlpha"/>
<feOffset dy="4"/>
<feGaussianBlur stdDeviation="2"/>
<feComposite in2="hardAlpha" operator="out"/>
<feColorMatrix type="matrix" values="0 0 0 0 0 0 0 0 0 0 0 0 0 0 0 0 0 0 0.25 0"/>
<feBlend mode="normal" in2="BackgroundImageFix" result="effect1_dropShadow_1_65"/>
<feBlend mode="normal" in="SourceGraphic" in2="effect1_dropShadow_1_65" result="shape"/>
</filter>
<linearGradient id="paint0_linear_1_65" x1="5.82041" y1="-2.63186" x2="53.8924" y2="3.22693" gradientUnits="userSpaceOnUse">
<stop stop-color="#D6600B"/>
<stop offset="0.167733" stop-color="#F58C41"/>
<stop offset="0.316151" stop-color="#FBCFB0"/>
<stop offset="0.482967" stop-color="#F59047"/>
<stop offset="0.59721" stop-color="#FBD0B1"/>
<stop offset="0.744539" stop-color="#F58B40"/>
<stop offset="0.898612" stop-color="#F58B40"/>
</linearGradient>
</defs>
</svg>
