<svg width="45" height="37" viewBox="0 0 45 37" fill="none" xmlns="http://www.w3.org/2000/svg">
<g filter="url(#filter0_d_1_5467)">
<mask id="path-1-outside-1_1_5467" maskUnits="userSpaceOnUse" x="2.89887" y="-2.3659" width="39.4657" height="30.949" fill="black">
<rect fill="white" x="2.89887" y="-2.3659" width="39.4657" height="30.949"/>
<path d="M12.2907 26.0852L16.0639 8.80443L17.7661 8.89364L13.9929 26.1744L12.2907 26.0852ZM4.61172 20.8352L4.97328 19.1473L17.9782 19.8288L17.6166 21.5168L4.61172 20.8352ZM6.16271 25.764L9.93592 8.48328L11.6381 8.57249L7.86492 25.8532L6.16271 25.764ZM5.95063 14.8289L6.31219 13.1409L19.3171 13.8225L18.9555 15.5104L5.95063 14.8289ZM21.189 26.5515L21.3977 22.5684L31.1562 14.4387C31.9878 13.7142 32.6878 13.0596 33.2561 12.4749C33.833 11.8906 34.2772 11.3122 34.5888 10.7397C34.9009 10.1586 35.075 9.5234 35.1112 8.834C35.1513 8.06801 35.0114 7.39926 34.6914 6.82775C34.3719 6.24773 33.9178 5.79295 33.3292 5.46339C32.7409 5.12533 32.0638 4.93622 31.2978 4.89608C30.4978 4.85415 29.7914 4.97928 29.1787 5.27148C28.566 5.56368 28.0821 6.00344 27.727 6.59078C27.3719 7.17811 27.1725 7.88882 27.1288 8.7229L21.8817 8.44791C21.9714 6.73719 22.4364 5.27231 23.277 4.05327C24.1175 2.83422 25.2537 1.91658 26.6857 1.30033C28.1176 0.68409 29.7442 0.423695 31.5656 0.519149C33.438 0.617279 35.0505 1.03463 36.403 1.77119C37.7645 2.4997 38.8019 3.46725 39.5153 4.67385C40.2287 5.88046 40.5459 7.23699 40.467 8.74344C40.4152 9.73072 40.1684 10.695 39.7265 11.6362C39.2931 12.5779 38.552 13.6101 37.5032 14.7329C36.4548 15.8472 34.9898 17.1743 33.1084 18.7143L29.0951 22.2549L29.0858 22.4336L40.065 23.009L39.8282 27.5284L21.189 26.5515Z"/>
</mask>
<path d="M12.2907 26.0852L16.0639 8.80443L17.7661 8.89364L13.9929 26.1744L12.2907 26.0852ZM4.61172 20.8352L4.97328 19.1473L17.9782 19.8288L17.6166 21.5168L4.61172 20.8352ZM6.16271 25.764L9.93592 8.48328L11.6381 8.57249L7.86492 25.8532L6.16271 25.764ZM5.95063 14.8289L6.31219 13.1409L19.3171 13.8225L18.9555 15.5104L5.95063 14.8289ZM21.189 26.5515L21.3977 22.5684L31.1562 14.4387C31.9878 13.7142 32.6878 13.0596 33.2561 12.4749C33.833 11.8906 34.2772 11.3122 34.5888 10.7397C34.9009 10.1586 35.075 9.5234 35.1112 8.834C35.1513 8.06801 35.0114 7.39926 34.6914 6.82775C34.3719 6.24773 33.9178 5.79295 33.3292 5.46339C32.7409 5.12533 32.0638 4.93622 31.2978 4.89608C30.4978 4.85415 29.7914 4.97928 29.1787 5.27148C28.566 5.56368 28.0821 6.00344 27.727 6.59078C27.3719 7.17811 27.1725 7.88882 27.1288 8.7229L21.8817 8.44791C21.9714 6.73719 22.4364 5.27231 23.277 4.05327C24.1175 2.83422 25.2537 1.91658 26.6857 1.30033C28.1176 0.68409 29.7442 0.423695 31.5656 0.519149C33.438 0.617279 35.0505 1.03463 36.403 1.77119C37.7645 2.4997 38.8019 3.46725 39.5153 4.67385C40.2287 5.88046 40.5459 7.23699 40.467 8.74344C40.4152 9.73072 40.1684 10.695 39.7265 11.6362C39.2931 12.5779 38.552 13.6101 37.5032 14.7329C36.4548 15.8472 34.9898 17.1743 33.1084 18.7143L29.0951 22.2549L29.0858 22.4336L40.065 23.009L39.8282 27.5284L21.189 26.5515Z" fill="url(#paint0_linear_1_5467)" shape-rendering="crispEdges"/>
<path d="M12.2907 26.0852L16.0639 8.80443L17.7661 8.89364L13.9929 26.1744L12.2907 26.0852ZM4.61172 20.8352L4.97328 19.1473L17.9782 19.8288L17.6166 21.5168L4.61172 20.8352ZM6.16271 25.764L9.93592 8.48328L11.6381 8.57249L7.86492 25.8532L6.16271 25.764ZM5.95063 14.8289L6.31219 13.1409L19.3171 13.8225L18.9555 15.5104L5.95063 14.8289ZM21.189 26.5515L21.3977 22.5684L31.1562 14.4387C31.9878 13.7142 32.6878 13.0596 33.2561 12.4749C33.833 11.8906 34.2772 11.3122 34.5888 10.7397C34.9009 10.1586 35.075 9.5234 35.1112 8.834C35.1513 8.06801 35.0114 7.39926 34.6914 6.82775C34.3719 6.24773 33.9178 5.79295 33.3292 5.46339C32.7409 5.12533 32.0638 4.93622 31.2978 4.89608C30.4978 4.85415 29.7914 4.97928 29.1787 5.27148C28.566 5.56368 28.0821 6.00344 27.727 6.59078C27.3719 7.17811 27.1725 7.88882 27.1288 8.7229L21.8817 8.44791C21.9714 6.73719 22.4364 5.27231 23.277 4.05327C24.1175 2.83422 25.2537 1.91658 26.6857 1.30033C28.1176 0.68409 29.7442 0.423695 31.5656 0.519149C33.438 0.617279 35.0505 1.03463 36.403 1.77119C37.7645 2.4997 38.8019 3.46725 39.5153 4.67385C40.2287 5.88046 40.5459 7.23699 40.467 8.74344C40.4152 9.73072 40.1684 10.695 39.7265 11.6362C39.2931 12.5779 38.552 13.6101 37.5032 14.7329C36.4548 15.8472 34.9898 17.1743 33.1084 18.7143L29.0951 22.2549L29.0858 22.4336L40.065 23.009L39.8282 27.5284L21.189 26.5515Z" fill="#E7E6E6" fill-opacity="0.55" shape-rendering="crispEdges"/>
<path d="M12.2907 26.0852L11.8022 25.9785L11.6766 26.5537L12.2645 26.5845L12.2907 26.0852ZM16.0639 8.80443L16.09 8.30512L15.666 8.28289L15.5754 8.69777L16.0639 8.80443ZM17.7661 8.89364L18.2546 9.0003L18.3802 8.42514L17.7923 8.39433L17.7661 8.89364ZM13.9929 26.1744L13.9667 26.6737L14.3908 26.6959L14.4814 26.2811L13.9929 26.1744ZM4.61172 20.8352L4.12281 20.7305L4 21.3038L4.58555 21.3345L4.61172 20.8352ZM4.97328 19.1473L4.99945 18.6479L4.57367 18.6256L4.48437 19.0425L4.97328 19.1473ZM17.9782 19.8288L18.4671 19.9335L18.5899 19.3602L18.0043 19.3295L17.9782 19.8288ZM17.6166 21.5168L17.5904 22.0161L18.0162 22.0384L18.1055 21.6215L17.6166 21.5168ZM6.16271 25.764L5.67422 25.6574L5.54863 26.2325L6.13654 26.2634L6.16271 25.764ZM9.93592 8.48328L9.96209 7.98397L9.53802 7.96174L9.44743 8.37662L9.93592 8.48328ZM11.6381 8.57249L12.1266 8.67915L12.2522 8.10399L11.6643 8.07318L11.6381 8.57249ZM7.86492 25.8532L7.83875 26.3526L8.26282 26.3748L8.35341 25.9599L7.86492 25.8532ZM5.95063 14.8289L5.46172 14.7241L5.33891 15.2975L5.92446 15.3282L5.95063 14.8289ZM6.31219 13.1409L6.33836 12.6416L5.91258 12.6193L5.82328 13.0362L6.31219 13.1409ZM19.3171 13.8225L19.806 13.9272L19.9288 13.3539L19.3432 13.3232L19.3171 13.8225ZM18.9555 15.5104L18.9293 16.0097L19.3551 16.032L19.4444 15.6151L18.9555 15.5104ZM12.2907 26.0852L12.7792 26.1918L16.5524 8.91109L16.0639 8.80443L15.5754 8.69777L11.8022 25.9785L12.2907 26.0852ZM16.0639 8.80443L16.0377 9.30375L17.7399 9.39296L17.7661 8.89364L17.7923 8.39433L16.09 8.30512L16.0639 8.80443ZM17.7661 8.89364L17.2776 8.78698L13.5044 26.0677L13.9929 26.1744L14.4814 26.2811L18.2546 9.0003L17.7661 8.89364ZM13.9929 26.1744L14.019 25.6751L12.3168 25.5859L12.2907 26.0852L12.2645 26.5845L13.9667 26.6737L13.9929 26.1744ZM4.61172 20.8352L5.10063 20.9399L5.46219 19.252L4.97328 19.1473L4.48437 19.0425L4.12281 20.7305L4.61172 20.8352ZM4.97328 19.1473L4.94711 19.6466L17.952 20.3281L17.9782 19.8288L18.0043 19.3295L4.99945 18.6479L4.97328 19.1473ZM17.9782 19.8288L17.4893 19.7241L17.1277 21.412L17.6166 21.5168L18.1055 21.6215L18.4671 19.9335L17.9782 19.8288ZM17.6166 21.5168L17.6428 21.0174L4.63789 20.3359L4.61172 20.8352L4.58555 21.3345L17.5904 22.0161L17.6166 21.5168ZM6.16271 25.764L6.6512 25.8707L10.4244 8.58994L9.93592 8.48328L9.44743 8.37662L5.67422 25.6574L6.16271 25.764ZM9.93592 8.48328L9.90975 8.9826L11.612 9.0718L11.6381 8.57249L11.6643 8.07318L9.96209 7.98397L9.93592 8.48328ZM11.6381 8.57249L11.1496 8.46583L7.37643 25.7466L7.86492 25.8532L8.35341 25.9599L12.1266 8.67915L11.6381 8.57249ZM7.86492 25.8532L7.89109 25.3539L6.18888 25.2647L6.16271 25.764L6.13654 26.2634L7.83875 26.3526L7.86492 25.8532ZM5.95063 14.8289L6.43954 14.9336L6.8011 13.2456L6.31219 13.1409L5.82328 13.0362L5.46172 14.7241L5.95063 14.8289ZM6.31219 13.1409L6.28602 13.6402L19.2909 14.3218L19.3171 13.8225L19.3432 13.3232L6.33836 12.6416L6.31219 13.1409ZM19.3171 13.8225L18.8282 13.7178L18.4666 15.4057L18.9555 15.5104L19.4444 15.6151L19.806 13.9272L19.3171 13.8225ZM18.9555 15.5104L18.9817 15.0111L5.9768 14.3295L5.95063 14.8289L5.92446 15.3282L18.9293 16.0097L18.9555 15.5104ZM21.189 26.5515L20.6896 26.5254L20.6635 27.0247L21.1628 27.0508L21.189 26.5515ZM21.3977 22.5684L21.0777 22.1842L20.9098 22.324L20.8984 22.5422L21.3977 22.5684ZM31.1562 14.4387L31.4763 14.8229L31.4846 14.8157L31.1562 14.4387ZM33.2561 12.4749L32.9003 12.1236L32.8976 12.1264L33.2561 12.4749ZM34.5888 10.7397L35.028 10.9787L35.0293 10.9763L34.5888 10.7397ZM34.6914 6.82775L34.2535 7.06901L34.2552 7.07201L34.6914 6.82775ZM33.3292 5.46339L33.08 5.89692L33.0849 5.89968L33.3292 5.46339ZM27.727 6.59077L28.1548 6.84946L27.727 6.59077ZM27.1288 8.7229L27.1026 9.22221L27.6019 9.24838L27.6281 8.74907L27.1288 8.7229ZM21.8817 8.44791L21.3824 8.42175L21.3562 8.92106L21.8555 8.94723L21.8817 8.44791ZM23.277 4.05327L23.6886 4.33709L23.277 4.05327ZM26.6857 1.30033L26.488 0.841058L26.6857 1.30033ZM36.403 1.77119L36.1639 2.21031L36.1671 2.21205L36.403 1.77119ZM39.5153 4.67385L39.0849 4.92832L39.5153 4.67385ZM39.7265 11.6362L39.2739 11.4237L39.2723 11.4272L39.7265 11.6362ZM37.5032 14.7329L37.8673 15.0755L37.8685 15.0742L37.5032 14.7329ZM33.1084 18.7143L32.7917 18.3274L32.7845 18.3333L32.7776 18.3394L33.1084 18.7143ZM29.0951 22.2549L28.7643 21.8799L28.6068 22.0189L28.5958 22.2287L29.0951 22.2549ZM29.0858 22.4336L28.5864 22.4074L28.5603 22.9067L29.0596 22.9329L29.0858 22.4336ZM40.065 23.009L40.5643 23.0352L40.5905 22.5359L40.0912 22.5097L40.065 23.009ZM39.8282 27.5284L39.802 28.0277L40.3013 28.0538L40.3275 27.5545L39.8282 27.5284ZM21.189 26.5515L21.6883 26.5777L21.897 22.5945L21.3977 22.5684L20.8984 22.5422L20.6896 26.5254L21.189 26.5515ZM21.3977 22.5684L21.7177 22.9525L31.4762 14.8228L31.1562 14.4387L30.8361 14.0545L21.0777 22.1842L21.3977 22.5684ZM31.1562 14.4387L31.4846 14.8157C32.3233 14.085 33.0341 13.4207 33.6147 12.8234L33.2561 12.4749L32.8976 12.1264C32.3416 12.6984 31.6523 13.3433 30.8277 14.0617L31.1562 14.4387ZM33.2561 12.4749L33.6119 12.8261C34.2136 12.2168 34.689 11.6014 35.028 10.9787L34.5888 10.7397L34.1497 10.5006C33.8653 11.023 33.4524 11.5644 32.9003 12.1236L33.2561 12.4749ZM34.5888 10.7397L35.0293 10.9763C35.3779 10.3272 35.5707 9.61966 35.6105 8.86017L35.1112 8.834L34.6118 8.80783C34.5794 9.42713 34.4239 9.99002 34.1483 10.5031L34.5888 10.7397ZM35.1112 8.834L35.6105 8.86017C35.6547 8.01629 35.5012 7.25063 35.1277 6.5835L34.6914 6.82775L34.2552 7.07201C34.5216 7.54788 34.6479 8.11972 34.6118 8.80783L35.1112 8.834ZM34.6914 6.82775L35.1294 6.5865C34.7639 5.92304 34.242 5.40139 33.5734 5.02711L33.3292 5.46339L33.0849 5.89968C33.5937 6.1845 33.9799 6.57243 34.2535 7.069L34.6914 6.82775ZM33.3292 5.46339L33.5783 5.02989C32.9135 4.64782 32.1581 4.44048 31.324 4.39676L31.2978 4.89608L31.2717 5.39539C31.9695 5.43197 32.5683 5.60283 33.08 5.8969L33.3292 5.46339ZM31.2978 4.89608L31.324 4.39676C30.4558 4.35126 29.6639 4.48615 28.9635 4.82017L29.1787 5.27148L29.3939 5.72279C29.9189 5.47241 30.5398 5.35704 31.2717 5.39539L31.2978 4.89608ZM29.1787 5.27148L28.9635 4.82017C28.2615 5.15491 27.7041 5.66213 27.2991 6.33209L27.727 6.59077L28.1548 6.84946C28.46 6.34475 28.8704 5.97244 29.3939 5.72279L29.1787 5.27148ZM27.727 6.59077L27.2991 6.33209C26.8931 7.00359 26.6765 7.79811 26.6294 8.69673L27.1288 8.7229L27.6281 8.74907C27.6684 7.97953 27.8506 7.35263 28.1548 6.84946L27.727 6.59077ZM27.1288 8.7229L27.1549 8.22359L21.9079 7.9486L21.8817 8.44791L21.8555 8.94723L27.1026 9.22221L27.1288 8.7229ZM21.8817 8.44791L22.381 8.47408C22.4666 6.84095 22.9084 5.4687 23.6886 4.33709L23.277 4.05327L22.8653 3.76945C21.9645 5.07592 21.4761 6.63344 21.3824 8.42175L21.8817 8.44791ZM23.277 4.05327L23.6886 4.33709C24.4728 3.19967 25.533 2.34072 26.8833 1.75961L26.6857 1.30033L26.488 0.841058C24.9744 1.49243 23.7621 2.46877 22.8653 3.76945L23.277 4.05327ZM26.6857 1.30033L26.8833 1.75961C28.2337 1.17848 29.7818 0.926348 31.5394 1.01846L31.5656 0.519149L31.5918 0.0198338C29.7067 -0.0789584 28.0015 0.189702 26.488 0.841058L26.6857 1.30033ZM31.5656 0.519149L31.5394 1.01846C33.3532 1.11352 34.8897 1.51638 36.1639 2.2103L36.403 1.77119L36.6422 1.33209C35.2113 0.552877 33.5229 0.121038 31.5918 0.0198338L31.5656 0.519149ZM36.403 1.77119L36.1671 2.21205C37.4564 2.90191 38.4227 3.80834 39.0849 4.92832L39.5153 4.67385L39.9457 4.41938C39.1811 3.12616 38.0726 2.09748 36.6389 1.33034L36.403 1.77119ZM39.5153 4.67385L39.0849 4.92832C39.7444 6.04369 40.0419 7.30126 39.9677 8.71727L40.467 8.74344L40.9663 8.76961C41.05 7.17271 40.7131 5.71723 39.9457 4.41938L39.5153 4.67385ZM40.467 8.74344L39.9677 8.71727C39.9195 9.6367 39.6898 10.5379 39.2739 11.4237L39.7265 11.6362L40.1791 11.8487C40.647 10.852 40.911 9.82474 40.9663 8.76961L40.467 8.74344ZM39.7265 11.6362L39.2723 11.4272C38.8692 12.3029 38.166 13.2909 37.1378 14.3916L37.5032 14.7329L37.8685 15.0742C38.938 13.9293 39.717 12.8528 40.1807 11.8453L39.7265 11.6362ZM37.5032 14.7329L37.139 14.3903C36.1115 15.4824 34.6649 16.7941 32.7917 18.3274L33.1084 18.7143L33.4251 19.1012C35.3148 17.5545 36.7981 16.212 37.8673 15.0755L37.5032 14.7329ZM33.1084 18.7143L32.7776 18.3394L28.7643 21.8799L29.0951 22.2549L29.4259 22.6298L33.4391 19.0893L33.1084 18.7143ZM29.0951 22.2549L28.5958 22.2287L28.5864 22.4074L29.0858 22.4336L29.5851 22.4598L29.5944 22.281L29.0951 22.2549ZM29.0858 22.4336L29.0596 22.9329L40.0388 23.5083L40.065 23.009L40.0912 22.5097L29.1119 21.9343L29.0858 22.4336ZM40.065 23.009L39.5657 22.9828L39.3288 27.5022L39.8282 27.5284L40.3275 27.5545L40.5643 23.0352L40.065 23.009ZM39.8282 27.5284L39.8543 27.0291L21.2151 26.0522L21.189 26.5515L21.1628 27.0508L39.802 28.0277L39.8282 27.5284Z" fill="white" fill-opacity="0.97" mask="url(#path-1-outside-1_1_5467)"/>
</g>
<defs>
<filter id="filter0_d_1_5467" x="0" y="0" width="44.9788" height="36.0538" filterUnits="userSpaceOnUse" color-interpolation-filters="sRGB">
<feFlood flood-opacity="0" result="BackgroundImageFix"/>
<feColorMatrix in="SourceAlpha" type="matrix" values="0 0 0 0 0 0 0 0 0 0 0 0 0 0 0 0 0 0 127 0" result="hardAlpha"/>
<feOffset dy="4"/>
<feGaussianBlur stdDeviation="2"/>
<feComposite in2="hardAlpha" operator="out"/>
<feColorMatrix type="matrix" values="0 0 0 0 0 0 0 0 0 0 0 0 0 0 0 0 0 0 0.25 0"/>
<feBlend mode="normal" in2="BackgroundImageFix" result="effect1_dropShadow_1_5467"/>
<feBlend mode="normal" in="SourceGraphic" in2="effect1_dropShadow_1_5467" result="shape"/>
</filter>
<linearGradient id="paint0_linear_1_5467" x1="4.76619" y1="-4.45047" x2="52.875" y2="1.33072" gradientUnits="userSpaceOnUse">
<stop stop-color="#717171"/>
<stop offset="0.0932979" stop-color="#7B7B7B"/>
<stop offset="0.230387" stop-color="#CBCBCB"/>
<stop offset="0.678823" stop-color="#D1D1D1"/>
<stop offset="0.799224" stop-color="#818181"/>
<stop offset="0.835628" stop-color="#9B9B9B"/>
</linearGradient>
</defs>
</svg>
