<svg width="46" height="36" viewBox="0 0 46 36" fill="none" xmlns="http://www.w3.org/2000/svg">
<g filter="url(#filter0_d_1_5477)">
<mask id="path-1-outside-1_1_5477" maskUnits="userSpaceOnUse" x="2.89893" y="-2.40496" width="40.4643" height="31.0014" fill="black">
<rect fill="white" x="2.89893" y="-2.40496" width="40.4643" height="31.0014"/>
<path d="M12.2907 26.0461L16.0639 8.76537L17.7661 8.85458L13.9929 26.1353L12.2907 26.0461ZM4.61178 20.7961L4.97334 19.1082L17.9782 19.7898L17.6167 21.4777L4.61178 20.7961ZM6.16277 25.725L9.93598 8.44422L11.6382 8.53343L7.86498 25.8142L6.16277 25.725ZM5.95069 14.7898L6.31225 13.1019L19.3171 13.7834L18.9556 15.4714L5.95069 14.7898ZM30.8346 27.3764C28.9281 27.2765 27.2473 26.8598 25.7922 26.1264C24.3461 25.385 23.2236 24.4129 22.4246 23.2104C21.6346 21.9998 21.2668 20.6321 21.3211 19.1072L26.8873 19.399C26.8879 20.0391 27.067 20.6117 27.4246 21.1169C27.7911 21.6141 28.2909 22.0115 28.9239 22.3092C29.5569 22.607 30.2777 22.777 31.0862 22.8194C31.9288 22.8636 32.6813 22.7537 33.3438 22.4897C34.0062 22.2257 34.5343 21.8394 34.9279 21.3309C35.3215 20.8224 35.5364 20.2235 35.5725 19.5341C35.6091 18.8362 35.4457 18.2089 35.0823 17.6522C34.7278 17.0874 34.1969 16.6328 33.4895 16.2885C32.7907 15.9447 31.9476 15.7469 30.9603 15.6951L28.5219 15.5673L28.7347 11.5075L31.1731 11.6353C32.0072 11.6791 32.7509 11.5729 33.4044 11.317C34.0664 11.0615 34.5896 10.6878 34.9738 10.1959C35.3585 9.69548 35.5689 9.10056 35.605 8.41117C35.6393 7.75581 35.512 7.17307 35.223 6.66292C34.9429 6.14471 34.5293 5.73046 33.9823 5.42015C33.4438 5.1103 32.8043 4.93596 32.0639 4.89716C31.3149 4.85791 30.6226 4.95818 29.9871 5.19797C29.3519 5.42925 28.8342 5.7819 28.4338 6.25591C28.0335 6.72993 27.8031 7.2982 27.7428 7.96072L22.4447 7.68306C22.5491 6.17794 23.0485 4.87274 23.9428 3.76746C24.8371 2.66218 26.0077 1.82314 27.4544 1.25035C28.9101 0.669488 30.5316 0.425892 32.3189 0.519561C34.1232 0.614123 35.6849 1.02454 37.0038 1.75081C38.3227 2.47708 39.3274 3.41732 40.018 4.57152C40.7175 5.71765 41.0268 6.97989 40.946 8.35823C40.8778 9.82258 40.3585 11.0201 39.388 11.9507C38.426 12.8817 37.2062 13.4408 35.7284 13.6279L35.7177 13.8322C37.6283 14.1798 39.0572 14.9246 40.0044 16.0667C40.9606 17.2007 41.3918 18.5802 41.2981 20.2054C41.2285 21.6953 40.7294 22.9962 39.8006 24.1082C38.8803 25.2207 37.6453 26.0691 36.0955 26.6536C34.5458 27.2381 32.7921 27.479 30.8346 27.3764Z"/>
</mask>
<path d="M12.2907 26.0461L16.0639 8.76537L17.7661 8.85458L13.9929 26.1353L12.2907 26.0461ZM4.61178 20.7961L4.97334 19.1082L17.9782 19.7898L17.6167 21.4777L4.61178 20.7961ZM6.16277 25.725L9.93598 8.44422L11.6382 8.53343L7.86498 25.8142L6.16277 25.725ZM5.95069 14.7898L6.31225 13.1019L19.3171 13.7834L18.9556 15.4714L5.95069 14.7898ZM30.8346 27.3764C28.9281 27.2765 27.2473 26.8598 25.7922 26.1264C24.3461 25.385 23.2236 24.4129 22.4246 23.2104C21.6346 21.9998 21.2668 20.6321 21.3211 19.1072L26.8873 19.399C26.8879 20.0391 27.067 20.6117 27.4246 21.1169C27.7911 21.6141 28.2909 22.0115 28.9239 22.3092C29.5569 22.607 30.2777 22.777 31.0862 22.8194C31.9288 22.8636 32.6813 22.7537 33.3438 22.4897C34.0062 22.2257 34.5343 21.8394 34.9279 21.3309C35.3215 20.8224 35.5364 20.2235 35.5725 19.5341C35.6091 18.8362 35.4457 18.2089 35.0823 17.6522C34.7278 17.0874 34.1969 16.6328 33.4895 16.2885C32.7907 15.9447 31.9476 15.7469 30.9603 15.6951L28.5219 15.5673L28.7347 11.5075L31.1731 11.6353C32.0072 11.6791 32.7509 11.5729 33.4044 11.317C34.0664 11.0615 34.5896 10.6878 34.9738 10.1959C35.3585 9.69548 35.5689 9.10056 35.605 8.41117C35.6393 7.75581 35.512 7.17307 35.223 6.66292C34.9429 6.14471 34.5293 5.73046 33.9823 5.42015C33.4438 5.1103 32.8043 4.93596 32.0639 4.89716C31.3149 4.85791 30.6226 4.95818 29.9871 5.19797C29.3519 5.42925 28.8342 5.7819 28.4338 6.25591C28.0335 6.72993 27.8031 7.2982 27.7428 7.96072L22.4447 7.68306C22.5491 6.17794 23.0485 4.87274 23.9428 3.76746C24.8371 2.66218 26.0077 1.82314 27.4544 1.25035C28.9101 0.669488 30.5316 0.425892 32.3189 0.519561C34.1232 0.614123 35.6849 1.02454 37.0038 1.75081C38.3227 2.47708 39.3274 3.41732 40.018 4.57152C40.7175 5.71765 41.0268 6.97989 40.946 8.35823C40.8778 9.82258 40.3585 11.0201 39.388 11.9507C38.426 12.8817 37.2062 13.4408 35.7284 13.6279L35.7177 13.8322C37.6283 14.1798 39.0572 14.9246 40.0044 16.0667C40.9606 17.2007 41.3918 18.5802 41.2981 20.2054C41.2285 21.6953 40.7294 22.9962 39.8006 24.1082C38.8803 25.2207 37.6453 26.0691 36.0955 26.6536C34.5458 27.2381 32.7921 27.479 30.8346 27.3764Z" fill="url(#paint0_linear_1_5477)" shape-rendering="crispEdges"/>
<path d="M12.2907 26.0461L11.8022 25.9395L11.6766 26.5146L12.2646 26.5454L12.2907 26.0461ZM16.0639 8.76537L16.0901 8.26606L15.666 8.24383L15.5754 8.65871L16.0639 8.76537ZM17.7661 8.85458L18.2546 8.96124L18.3802 8.38608L17.7923 8.35527L17.7661 8.85458ZM13.9929 26.1353L13.9668 26.6346L14.3908 26.6569L14.4814 26.242L13.9929 26.1353ZM4.61178 20.7961L4.12287 20.6914L4.00006 21.2648L4.58561 21.2955L4.61178 20.7961ZM4.97334 19.1082L4.99951 18.6089L4.57374 18.5866L4.48443 19.0035L4.97334 19.1082ZM17.9782 19.7898L18.4671 19.8945L18.5899 19.3211L18.0044 19.2904L17.9782 19.7898ZM17.6167 21.4777L17.5905 21.977L18.0163 21.9993L18.1056 21.5824L17.6167 21.4777ZM6.16277 25.725L5.67428 25.6183L5.54869 26.1935L6.1366 26.2243L6.16277 25.725ZM9.93598 8.44422L9.96215 7.9449L9.53808 7.92268L9.44749 8.33756L9.93598 8.44422ZM11.6382 8.53343L12.1267 8.64009L12.2523 8.06492L11.6644 8.03411L11.6382 8.53343ZM7.86498 25.8142L7.83881 26.3135L8.26288 26.3357L8.35347 25.9208L7.86498 25.8142ZM5.95069 14.7898L5.46178 14.6851L5.33897 15.2584L5.92452 15.2891L5.95069 14.7898ZM6.31225 13.1019L6.33842 12.6025L5.91265 12.5802L5.82334 12.9971L6.31225 13.1019ZM19.3171 13.7834L19.806 13.8881L19.9289 13.3148L19.3433 13.2841L19.3171 13.7834ZM18.9556 15.4714L18.9294 15.9707L19.3552 15.993L19.4445 15.5761L18.9556 15.4714ZM12.2907 26.0461L12.7792 26.1528L16.5524 8.87203L16.0639 8.76537L15.5754 8.65871L11.8022 25.9395L12.2907 26.0461ZM16.0639 8.76537L16.0378 9.26469L17.74 9.35389L17.7661 8.85458L17.7923 8.35527L16.0901 8.26606L16.0639 8.76537ZM17.7661 8.85458L17.2777 8.74792L13.5044 26.0287L13.9929 26.1353L14.4814 26.242L18.2546 8.96124L17.7661 8.85458ZM13.9929 26.1353L14.0191 25.636L12.3169 25.5468L12.2907 26.0461L12.2646 26.5454L13.9668 26.6346L13.9929 26.1353ZM4.61178 20.7961L5.10069 20.9009L5.46225 19.2129L4.97334 19.1082L4.48443 19.0035L4.12287 20.6914L4.61178 20.7961ZM4.97334 19.1082L4.94718 19.6075L17.9521 20.2891L17.9782 19.7898L18.0044 19.2904L4.99951 18.6089L4.97334 19.1082ZM17.9782 19.7898L17.4893 19.685L17.1278 21.373L17.6167 21.4777L18.1056 21.5824L18.4671 19.8945L17.9782 19.7898ZM17.6167 21.4777L17.6428 20.9784L4.63795 20.2968L4.61178 20.7961L4.58561 21.2955L17.5905 21.977L17.6167 21.4777ZM6.16277 25.725L6.65126 25.8316L10.4245 8.55088L9.93598 8.44422L9.44749 8.33756L5.67428 25.6183L6.16277 25.725ZM9.93598 8.44422L9.90981 8.94353L11.612 9.03274L11.6382 8.53343L11.6644 8.03411L9.96215 7.9449L9.93598 8.44422ZM11.6382 8.53343L11.1497 8.42677L7.37649 25.7075L7.86498 25.8142L8.35347 25.9208L12.1267 8.64009L11.6382 8.53343ZM7.86498 25.8142L7.89115 25.3149L6.18894 25.2257L6.16277 25.725L6.1366 26.2243L7.83881 26.3135L7.86498 25.8142ZM5.95069 14.7898L6.4396 14.8945L6.80116 13.2066L6.31225 13.1019L5.82334 12.9971L5.46178 14.6851L5.95069 14.7898ZM6.31225 13.1019L6.28609 13.6012L19.291 14.2827L19.3171 13.7834L19.3433 13.2841L6.33842 12.6025L6.31225 13.1019ZM19.3171 13.7834L18.8282 13.6787L18.4667 15.3666L18.9556 15.4714L19.4445 15.5761L19.806 13.8881L19.3171 13.7834ZM18.9556 15.4714L18.9817 14.972L5.97686 14.2905L5.95069 14.7898L5.92452 15.2891L18.9294 15.9707L18.9556 15.4714ZM25.7922 26.1264L25.5641 26.5714L25.5672 26.5729L25.7922 26.1264ZM22.4246 23.2104L22.0059 23.4836L22.0081 23.4871L22.4246 23.2104ZM21.3211 19.1072L21.3473 18.6079L20.8395 18.5813L20.8214 19.0894L21.3211 19.1072ZM26.8873 19.399L27.3873 19.3985L27.3869 18.9244L26.9135 18.8996L26.8873 19.399ZM27.4246 21.1169L27.0164 21.4058L27.0221 21.4136L27.4246 21.1169ZM28.9239 22.3092L28.7111 22.7617L28.9239 22.3092ZM33.3438 22.4897L33.1587 22.0252L33.3438 22.4897ZM34.9279 21.3309L35.3233 21.637L35.3233 21.637L34.9279 21.3309ZM35.0823 17.6522L34.6587 17.918L34.6636 17.9255L35.0823 17.6522ZM33.4895 16.2885L33.2688 16.7372L33.2707 16.7381L33.4895 16.2885ZM28.5219 15.5673L28.0226 15.5411L27.9964 16.0405L28.4957 16.0666L28.5219 15.5673ZM28.7347 11.5075L28.7608 11.0082L28.2615 10.9821L28.2353 11.4814L28.7347 11.5075ZM33.4044 11.317L33.2244 10.8505L33.2221 10.8515L33.4044 11.317ZM34.9738 10.1959L35.3679 10.5037L35.3702 10.5006L34.9738 10.1959ZM35.223 6.66292L34.783 6.90071L34.7879 6.9094L35.223 6.66292ZM33.9823 5.42015L33.7329 5.85354L33.7356 5.85505L33.9823 5.42015ZM29.9871 5.19797L30.1581 5.66782L30.1635 5.66578L29.9871 5.19797ZM28.4338 6.25591L28.8158 6.57854L28.4338 6.25591ZM27.7428 7.96072L27.7166 8.46003L28.1971 8.48521L28.2407 8.00606L27.7428 7.96072ZM22.4447 7.68306L21.9459 7.64843L21.9106 8.15575L22.4185 8.18237L22.4447 7.68306ZM23.9428 3.76746L24.3315 4.08196L23.9428 3.76746ZM27.4544 1.25035L27.6384 1.71524L27.6397 1.71474L27.4544 1.25035ZM37.0038 1.75081L37.245 1.31283L37.0038 1.75081ZM40.018 4.57152L39.5889 4.82823L39.5912 4.83199L40.018 4.57152ZM40.946 8.35823L40.4469 8.32898L40.4466 8.33497L40.946 8.35823ZM39.388 11.9506L39.0419 11.5898L39.0403 11.5914L39.388 11.9506ZM35.7284 13.6279L35.6656 13.1319L35.251 13.1844L35.2291 13.6017L35.7284 13.6279ZM35.7177 13.8322L35.2184 13.806L35.1954 14.2453L35.6282 14.3241L35.7177 13.8322ZM40.0044 16.0667L39.6195 16.3859L39.6221 16.389L40.0044 16.0667ZM41.2981 20.2054L40.7989 20.1766L40.7986 20.1821L41.2981 20.2054ZM39.8006 24.1082L39.4168 23.7877L39.4153 23.7895L39.8006 24.1082ZM36.0955 26.6536L35.9191 26.1858L36.0955 26.6536ZM30.8346 27.3764L30.8608 26.8771C29.0118 26.7802 27.4008 26.3772 26.0173 25.6799L25.7922 26.1264L25.5672 26.5729C27.0939 27.3424 28.8445 27.7728 30.8084 27.8757L30.8346 27.3764ZM25.7922 26.1264L26.0204 25.6815C24.6406 24.9741 23.587 24.0564 22.8411 22.9337L22.4246 23.2104L22.0081 23.4871C22.8602 24.7695 24.0516 25.7958 25.5641 26.5714L25.7922 26.1264ZM22.4246 23.2104L22.8433 22.9371C22.1129 21.8178 21.7699 20.5529 21.8208 19.125L21.3211 19.1072L20.8214 19.0894C20.7636 20.7112 21.1563 22.1817 22.0059 23.4836L22.4246 23.2104ZM21.3211 19.1072L21.2949 19.6066L26.8611 19.8983L26.8873 19.399L26.9135 18.8996L21.3473 18.6079L21.3211 19.1072ZM26.8873 19.399L26.3873 19.3994C26.388 20.1391 26.597 20.8132 27.0164 21.4058L27.4246 21.1169L27.8327 20.8281C27.5369 20.4102 27.3878 19.9391 27.3873 19.3985L26.8873 19.399ZM27.4246 21.1169L27.0221 21.4136C27.4442 21.9861 28.013 22.4333 28.7111 22.7617L28.9239 22.3092L29.1367 21.8568C28.5687 21.5897 28.138 21.2421 27.827 20.8202L27.4246 21.1169ZM28.9239 22.3092L28.7111 22.7617C29.4111 23.091 30.1969 23.2735 31.06 23.3187L31.0862 22.8194L31.1124 22.3201C30.3584 22.2806 29.7026 22.123 29.1367 21.8568L28.9239 22.3092ZM31.0862 22.8194L31.06 23.3187C31.9617 23.366 32.7882 23.2493 33.5289 22.9541L33.3438 22.4897L33.1587 22.0252C32.5745 22.258 31.8959 22.3612 31.1124 22.3201L31.0862 22.8194ZM33.3438 22.4897L33.5289 22.9541C34.265 22.6608 34.8692 22.2236 35.3233 21.637L34.9279 21.3309L34.5325 21.0249C34.1994 21.4552 33.7474 21.7906 33.1587 22.0252L33.3438 22.4897ZM34.9279 21.3309L35.3233 21.637C35.7839 21.0419 36.0308 20.3435 36.0719 19.5603L35.5725 19.5341L35.0732 19.5079C35.042 20.1035 34.8591 20.6029 34.5325 21.0249L34.9279 21.3309ZM35.5725 19.5341L36.0719 19.5603C36.1137 18.7623 35.9254 18.029 35.501 17.3788L35.0823 17.6522L34.6636 17.9255C34.966 18.3887 35.1046 18.9101 35.0732 19.5079L35.5725 19.5341ZM35.0823 17.6522L35.5058 17.3864C35.0933 16.7291 34.4845 16.2167 33.7084 15.8389L33.4895 16.2885L33.2707 16.7381C33.9094 17.0489 34.3624 17.4456 34.6588 17.9179L35.0823 17.6522ZM33.4895 16.2885L33.7103 15.8399C32.9367 15.4592 32.0239 15.2502 30.9865 15.1958L30.9603 15.6951L30.9341 16.1944C31.8713 16.2435 32.6447 16.4301 33.2688 16.7372L33.4895 16.2885ZM30.9603 15.6951L30.9865 15.1958L28.5481 15.068L28.5219 15.5673L28.4957 16.0666L30.9341 16.1944L30.9603 15.6951ZM28.5219 15.5673L29.0212 15.5935L29.234 11.5337L28.7347 11.5075L28.2353 11.4814L28.0226 15.5411L28.5219 15.5673ZM28.7347 11.5075L28.7085 12.0069L31.1469 12.1347L31.1731 11.6353L31.1992 11.136L28.7608 11.0082L28.7347 11.5075ZM31.1731 11.6353L31.1469 12.1347C32.0388 12.1814 32.8556 12.0689 33.5868 11.7826L33.4044 11.317L33.2221 10.8515C32.6463 11.0769 31.9755 11.1767 31.1992 11.136L31.1731 11.6353ZM33.4044 11.317L33.5845 11.7835C34.3191 11.5 34.9206 11.0762 35.3678 10.5037L34.9738 10.1959L34.5797 9.88814C34.2585 10.2995 33.8138 10.6231 33.2244 10.8506L33.4044 11.317ZM34.9738 10.1959L35.3702 10.5006C35.8224 9.91238 36.0634 9.21794 36.1043 8.43733L35.605 8.41117L35.1057 8.385C35.0743 8.98318 34.8945 9.47858 34.5774 9.8912L34.9738 10.1959ZM35.605 8.41117L36.1043 8.43733C36.143 7.69854 35.9995 7.01913 35.658 6.41644L35.223 6.66292L34.7879 6.9094C35.0245 7.32701 35.1357 7.81309 35.1057 8.385L35.605 8.41117ZM35.223 6.66292L35.6628 6.42518C35.3351 5.8188 34.8519 5.33859 34.229 4.98526L33.9823 5.42015L33.7356 5.85505C34.2068 6.12233 34.5507 6.47063 34.7831 6.90066L35.223 6.66292ZM33.9823 5.42015L34.2317 4.98678C33.613 4.63079 32.894 4.43998 32.09 4.39784L32.0639 4.89716L32.0377 5.39647C32.7147 5.43195 33.2746 5.5898 33.7329 5.85353L33.9823 5.42015ZM32.0639 4.89716L32.09 4.39784C31.2793 4.35535 30.5172 4.46354 29.8106 4.73015L29.9871 5.19797L30.1635 5.66578C30.728 5.45281 31.3505 5.36046 32.0377 5.39647L32.0639 4.89716ZM29.9871 5.19797L29.816 4.72815C29.1064 4.98652 28.5134 5.38678 28.0518 5.93328L28.4338 6.25591L28.8158 6.57854C29.1549 6.17701 29.5974 5.87198 30.1581 5.66779L29.9871 5.19797ZM28.4338 6.25591L28.0518 5.93328C27.5804 6.49141 27.3138 7.1585 27.2449 7.91538L27.7428 7.96072L28.2407 8.00606C28.2925 7.43789 28.4865 6.96844 28.8158 6.57854L28.4338 6.25591ZM27.7428 7.96072L27.769 7.4614L22.4708 7.18374L22.4447 7.68306L22.4185 8.18237L27.7166 8.46003L27.7428 7.96072ZM22.4447 7.68306L22.9435 7.71768C23.0413 6.30832 23.5058 5.10245 24.3315 4.08196L23.9428 3.76746L23.5541 3.45296C22.5912 4.64303 22.057 6.04755 21.9459 7.64843L22.4447 7.68306ZM23.9428 3.76746L24.3315 4.08196C25.1667 3.04979 26.264 2.25942 27.6384 1.71524L27.4544 1.25035L27.2703 0.78546C25.7513 1.38687 24.5076 2.27458 23.5541 3.45296L23.9428 3.76746ZM27.4544 1.25035L27.6397 1.71474C29.0193 1.16423 30.5674 0.928453 32.2927 1.01888L32.3189 0.519561L32.3451 0.0202462C30.4958 -0.0766697 28.8008 0.174747 27.2691 0.785955L27.4544 1.25035ZM32.3189 0.519561L32.2927 1.01888C34.0366 1.11027 35.5217 1.5055 36.7626 2.1888L37.0038 1.75081L37.245 1.31283C35.848 0.543576 34.2099 0.117978 32.3451 0.0202462L32.3189 0.519561ZM37.0038 1.75081L36.7626 2.1888C38.0134 2.87757 38.9491 3.7588 39.5889 4.82822L40.018 4.57152L40.447 4.31481C39.7058 3.07583 38.632 2.0766 37.245 1.31283L37.0038 1.75081ZM40.018 4.57152L39.5912 4.83199C40.236 5.88859 40.5219 7.04927 40.4469 8.32899L40.946 8.35823L41.4452 8.38748C41.5317 6.91051 41.1989 5.54671 40.4448 4.31104L40.018 4.57152ZM40.946 8.35823L40.4466 8.33497C40.3838 9.6839 39.9112 10.7563 39.0419 11.5898L39.388 11.9506L39.7341 12.3115C40.8058 11.2838 41.3719 9.96126 41.4455 8.3815L40.946 8.35823ZM39.388 11.9506L39.0403 11.5914C38.1647 12.4388 37.0488 12.9567 35.6656 13.1319L35.7284 13.6279L35.7913 14.1239C37.3635 13.9248 38.6873 13.3246 39.7357 12.3099L39.388 11.9506ZM35.7284 13.6279L35.2291 13.6017L35.2184 13.806L35.7177 13.8322L36.2171 13.8583L36.2278 13.6541L35.7284 13.6279ZM35.7177 13.8322L35.6282 14.3241C37.4593 14.6573 38.768 15.3591 39.6195 16.3859L40.0044 16.0667L40.3893 15.7475C39.3464 14.4901 37.7973 13.7023 35.8072 13.3402L35.7177 13.8322ZM40.0044 16.0667L39.6221 16.389C40.4875 17.4153 40.886 18.6656 40.7989 20.1766L41.2981 20.2054L41.7973 20.2342C41.8975 18.4949 41.4336 16.986 40.3866 15.7444L40.0044 16.0667ZM41.2981 20.2054L40.7986 20.1821C40.734 21.5664 40.2735 22.7621 39.4168 23.7877L39.8006 24.1082L40.1843 24.4287C41.1853 23.2303 41.7231 21.8242 41.7975 20.2287L41.2981 20.2054ZM39.8006 24.1082L39.4153 23.7895C38.5582 24.8256 37.3996 25.6274 35.9191 26.1858L36.0955 26.6536L36.272 27.1214C37.891 26.5109 39.2024 25.6158 40.1858 24.4269L39.8006 24.1082ZM36.0955 26.6536L35.9191 26.1858C34.4447 26.7418 32.7618 26.9767 30.8608 26.8771L30.8346 27.3764L30.8084 27.8757C32.8225 27.9813 34.6468 27.7343 36.272 27.1214L36.0955 26.6536Z" fill="white" fill-opacity="0.97" mask="url(#path-1-outside-1_1_5477)"/>
</g>
<defs>
<filter id="filter0_d_1_5477" x="0" y="0" width="45.8107" height="35.8994" filterUnits="userSpaceOnUse" color-interpolation-filters="sRGB">
<feFlood flood-opacity="0" result="BackgroundImageFix"/>
<feColorMatrix in="SourceAlpha" type="matrix" values="0 0 0 0 0 0 0 0 0 0 0 0 0 0 0 0 0 0 127 0" result="hardAlpha"/>
<feOffset dy="4"/>
<feGaussianBlur stdDeviation="2"/>
<feComposite in2="hardAlpha" operator="out"/>
<feColorMatrix type="matrix" values="0 0 0 0 0 0 0 0 0 0 0 0 0 0 0 0 0 0 0.25 0"/>
<feBlend mode="normal" in2="BackgroundImageFix" result="effect1_dropShadow_1_5477"/>
<feBlend mode="normal" in="SourceGraphic" in2="effect1_dropShadow_1_5477" result="shape"/>
</filter>
<linearGradient id="paint0_linear_1_5477" x1="5.82047" y1="-2.6318" x2="53.8925" y2="3.22698" gradientUnits="userSpaceOnUse">
<stop stop-color="#D6600B"/>
<stop offset="0.167733" stop-color="#F58C41"/>
<stop offset="0.316151" stop-color="#FBCFB0"/>
<stop offset="0.482967" stop-color="#F59047"/>
<stop offset="0.59721" stop-color="#FBD0B1"/>
<stop offset="0.744539" stop-color="#F58B40"/>
<stop offset="0.898612" stop-color="#F58B40"/>
</linearGradient>
</defs>
</svg>
