<svg width="16" height="16" viewBox="0 0 16 16" fill="none" xmlns="http://www.w3.org/2000/svg">
<path d="M4.66665 1.33335C4.66665 0.965164 4.36817 0.666687 3.99998 0.666687C3.63179 0.666687 3.33331 0.965164 3.33331 1.33335V1.63259C3.58686 1.55216 3.857 1.49474 4.14353 1.45309C4.30883 1.42907 4.48313 1.40986 4.66665 1.39451V1.33335Z" fill="#141B34"/>
<path d="M12.6666 1.63259C12.4131 1.55216 12.143 1.49474 11.8564 1.45309C11.6911 1.42907 11.5168 1.40986 11.3333 1.39451V1.33335C11.3333 0.965164 11.6318 0.666687 12 0.666687C12.3682 0.666687 12.6666 0.965164 12.6666 1.33335V1.63259Z" fill="#141B34"/>
<path opacity="0.4" fill-rule="evenodd" clip-rule="evenodd" d="M8.68585 1.33331H7.31415C6.01529 1.33329 4.96761 1.33328 4.14355 1.45305C3.28356 1.57805 2.5712 1.84519 2.01201 2.44971C1.45966 3.04685 1.22186 3.79513 1.10944 4.69909C0.999978 5.57927 0.999988 6.70269 1 8.11589V8.55073C0.999988 9.96393 0.999978 11.0874 1.10944 11.9675C1.22186 12.8715 1.45966 13.6198 2.01201 14.2169C2.5712 14.8214 3.28356 15.0886 4.14355 15.2136C4.96761 15.3334 6.01529 15.3333 7.31415 15.3333H8.68584C9.9847 15.3333 11.0324 15.3334 11.8564 15.2136C12.7164 15.0886 13.4288 14.8214 13.988 14.2169C14.5403 13.6198 14.7781 12.8715 14.8906 11.9675C15 11.0874 15 9.96393 15 8.55071V8.11592C15 6.7027 15 5.57928 14.8906 4.69909C14.7781 3.79513 14.5403 3.04685 13.988 2.44971C13.4288 1.84519 12.7164 1.57805 11.8564 1.45305C11.0324 1.33328 9.98471 1.33329 8.68585 1.33331ZM2.99855 5.99998C2.6928 5.99998 2.53993 5.99998 2.44257 6.09609C2.34521 6.1922 2.34325 6.34313 2.33933 6.64499C2.33351 7.09376 2.33333 7.5961 2.33333 8.16214V8.50449C2.33333 9.97439 2.33455 11.0147 2.43258 11.803C2.52885 12.5771 2.70842 13.0062 2.99081 13.3115C3.26637 13.6094 3.64313 13.7935 4.33533 13.8941C5.05238 13.9983 6.00284 14 7.36667 14H8.63333C9.99717 14 10.9476 13.9983 11.6647 13.8941C12.3569 13.7935 12.7336 13.6094 13.0092 13.3115C13.2916 13.0062 13.4712 12.5771 13.5674 11.803C13.6655 11.0147 13.6667 9.97439 13.6667 8.50449V8.16214C13.6667 7.5961 13.6665 7.09376 13.6607 6.64499C13.6568 6.34313 13.6548 6.1922 13.5574 6.09609C13.4601 5.99998 13.3072 5.99998 13.0014 5.99998H2.99855Z" fill="#141B34"/>
<path fill-rule="evenodd" clip-rule="evenodd" d="M4.5 8.66665C4.5 8.20641 4.8731 7.83331 5.33333 7.83331H5.33931C5.79955 7.83331 6.17265 8.20641 6.17265 8.66665C6.17265 9.12688 5.79955 9.49998 5.33931 9.49998H5.33333C4.8731 9.49998 4.5 9.12688 4.5 8.66665ZM7.16368 8.66665C7.16368 8.20641 7.53677 7.83331 7.99701 7.83331H8.00299C8.46323 7.83331 8.83632 8.20641 8.83632 8.66665C8.83632 9.12688 8.46323 9.49998 8.00299 9.49998H7.99701C7.53677 9.49998 7.16368 9.12688 7.16368 8.66665ZM9.82735 8.66665C9.82735 8.20641 10.2004 7.83331 10.6607 7.83331H10.6667C11.1269 7.83331 11.5 8.20641 11.5 8.66665C11.5 9.12688 11.1269 9.49998 10.6667 9.49998H10.6607C10.2004 9.49998 9.82735 9.12688 9.82735 8.66665ZM4.5 11.3333C4.5 10.8731 4.8731 10.5 5.33333 10.5H5.33931C5.79955 10.5 6.17265 10.8731 6.17265 11.3333C6.17265 11.7936 5.79955 12.1666 5.33931 12.1666H5.33333C4.8731 12.1666 4.5 11.7936 4.5 11.3333ZM7.16368 11.3333C7.16368 10.8731 7.53677 10.5 7.99701 10.5H8.00299C8.46323 10.5 8.83632 10.8731 8.83632 11.3333C8.83632 11.7936 8.46323 12.1666 8.00299 12.1666H7.99701C7.53677 12.1666 7.16368 11.7936 7.16368 11.3333Z" fill="#141B34"/>
</svg>
