<svg width="20" height="20" viewBox="0 0 20 20" fill="none" xmlns="http://www.w3.org/2000/svg">
<path d="M15 1.66669V3.33335M5 1.66669V3.33335" stroke="#141B34" stroke-width="1.5" stroke-linecap="round" stroke-linejoin="round"/>
<path d="M9.99626 10.8333H10.0037M9.99626 14.1666H10.0037M13.3259 10.8333H13.3333M6.66667 10.8333H6.67414M6.66667 14.1666H6.67414" stroke="#141B34" stroke-width="2" stroke-linecap="round" stroke-linejoin="round"/>
<path d="M2.91667 6.66669H17.0833" stroke="#141B34" stroke-width="1.5" stroke-linecap="round" stroke-linejoin="round"/>
<path d="M2.08333 10.2027C2.08333 6.57161 2.08333 4.75607 3.12676 3.62803C4.1702 2.5 5.84957 2.5 9.20833 2.5H10.7917C14.1504 2.5 15.8298 2.5 16.8732 3.62803C17.9167 4.75607 17.9167 6.57161 17.9167 10.2027V10.6306C17.9167 14.2617 17.9167 16.0773 16.8732 17.2053C15.8298 18.3333 14.1504 18.3333 10.7917 18.3333H9.20833C5.84957 18.3333 4.1702 18.3333 3.12676 17.2053C2.08333 16.0773 2.08333 14.2617 2.08333 10.6306V10.2027Z" stroke="#141B34" stroke-width="1.5" stroke-linecap="round" stroke-linejoin="round"/>
<path d="M2.5 6.66669H17.5" stroke="#141B34" stroke-width="1.5" stroke-linecap="round" stroke-linejoin="round"/>
</svg>
