<svg width="20" height="20" viewBox="0 0 20 20" fill="none" xmlns="http://www.w3.org/2000/svg">
<path d="M7.08335 15.8333H6.66669C3.33335 15.8333 1.66669 15 1.66669 10.8333V6.66663C1.66669 3.33329 3.33335 1.66663 6.66669 1.66663H13.3334C16.6667 1.66663 18.3334 3.33329 18.3334 6.66663V10.8333C18.3334 14.1666 16.6667 15.8333 13.3334 15.8333H12.9167C12.6584 15.8333 12.4084 15.9583 12.25 16.1666L11 17.8333C10.45 18.5666 9.55002 18.5666 9.00002 17.8333L7.75002 16.1666C7.61669 15.9833 7.30835 15.8333 7.08335 15.8333Z" stroke="black" stroke-width="1.5" stroke-miterlimit="10" stroke-linecap="round" stroke-linejoin="round"/>
<path d="M13.3306 9.16667H13.3381" stroke="black" stroke-width="1.5" stroke-linecap="round" stroke-linejoin="round"/>
<path d="M9.9954 9.16667H10.0029" stroke="black" stroke-width="1.5" stroke-linecap="round" stroke-linejoin="round"/>
<path d="M6.66209 9.16667H6.66957" stroke="black" stroke-width="1.5" stroke-linecap="round" stroke-linejoin="round"/>
</svg>
