<svg width="20" height="20" viewBox="0 0 20 20" fill="none" xmlns="http://www.w3.org/2000/svg">
<path d="M14.1667 9.00371C14.1667 8.7157 14.1667 8.57169 14.21 8.44331C14.336 8.07037 14.6681 7.92563 15.0009 7.77407C15.375 7.60368 15.562 7.51849 15.7474 7.5035C15.9577 7.48649 16.1685 7.53181 16.3483 7.63274C16.5867 7.76654 16.753 8.02078 16.9232 8.22751C17.7094 9.18237 18.1024 9.6598 18.2463 10.1863C18.3623 10.6112 18.3623 11.0555 18.2463 11.4804C18.0365 12.2483 17.3737 12.892 16.8832 13.4878C16.6322 13.7926 16.5067 13.945 16.3483 14.0339C16.1685 14.1349 15.9577 14.1802 15.7474 14.1632C15.562 14.1482 15.375 14.063 15.0009 13.8926C14.6681 13.741 14.336 13.5963 14.21 13.2234C14.1667 13.095 14.1667 12.951 14.1667 12.663V9.00371Z" stroke="#141B34" stroke-width="1.5"/>
<path d="M5.83333 9.00385C5.83333 8.64114 5.82315 8.31517 5.52993 8.06017C5.42327 7.96741 5.28188 7.90301 4.99909 7.77421C4.625 7.60382 4.43796 7.51863 4.25263 7.50364C3.69659 7.45867 3.39743 7.83817 3.07677 8.22765C2.29062 9.18251 1.89755 9.65994 1.75372 10.1864C1.63765 10.6113 1.63765 11.0556 1.75372 11.4805C1.9635 12.2484 2.62626 12.8921 3.11684 13.488C3.42607 13.8636 3.72147 14.2063 4.25263 14.1633C4.43796 14.1483 4.625 14.0631 4.99909 13.8927C5.28188 13.7639 5.42327 13.6995 5.52993 13.6068C5.82315 13.3518 5.83333 13.0258 5.83333 12.6631V9.00385Z" stroke="#141B34" stroke-width="1.5"/>
<path d="M4.16667 7.5C4.16667 4.73858 6.77834 2.5 10 2.5C13.2217 2.5 15.8333 4.73858 15.8333 7.5" stroke="#141B34" stroke-width="1.5" stroke-linecap="square" stroke-linejoin="round"/>
<path opacity="0.4" d="M15.8333 14.1667V14.8334C15.8333 16.3061 14.3409 17.5 12.5 17.5H10.8333" stroke="#141B34" stroke-width="1.5" stroke-linecap="round" stroke-linejoin="round"/>
</svg>
