<svg width="40" height="40" viewBox="0 0 40 40" fill="none" xmlns="http://www.w3.org/2000/svg">
<mask id="path-1-inside-1_317_188" fill="white">
<path d="M0 12C0 5.37258 5.37258 0 12 0H28C34.6274 0 40 5.37258 40 12V28C40 34.6274 34.6274 40 28 40H12C5.37258 40 0 34.6274 0 28V12Z"/>
</mask>
<path d="M0 12C0 5.37258 5.37258 0 12 0H28C34.6274 0 40 5.37258 40 12V28C40 34.6274 34.6274 40 28 40H12C5.37258 40 0 34.6274 0 28V12Z" fill="url(#paint0_linear_317_188)"/>
<path d="M0 12C0 4.8203 5.8203 -1 13 -1H27C34.1797 -1 40 4.8203 40 12C40 5.92487 34.6274 1 28 1H12C5.37258 1 0 5.92487 0 12ZM40 40H0H40ZM0 40V0V40ZM40 0V40V0Z" fill="url(#paint1_linear_317_188)" mask="url(#path-1-inside-1_317_188)"/>
<path d="M15.0305 11.0417C15.6464 11.0417 16.1527 11.0417 16.5623 11.0806C16.9879 11.1211 17.3732 11.208 17.7236 11.4227C18.0716 11.6359 18.3641 11.9285 18.5773 12.2764C18.7921 12.6268 18.8789 13.0121 18.9194 13.4377C18.9584 13.8473 18.9583 14.3536 18.9583 14.9695V14.9695V15.0305V15.0305C18.9583 15.6464 18.9584 16.1527 18.9194 16.5623C18.8789 16.9879 18.7921 17.3732 18.5773 17.7236C18.3641 18.0716 18.0716 18.3641 17.7236 18.5773C17.3732 18.7921 16.9879 18.8789 16.5623 18.9194C16.1527 18.9584 15.6464 18.9583 15.0305 18.9583H15.0305H14.9695H14.9695C14.3536 18.9583 13.8473 18.9584 13.4377 18.9194C13.0121 18.8789 12.6268 18.7921 12.2764 18.5773C11.9285 18.3641 11.6359 18.0716 11.4227 17.7236C11.2079 17.3732 11.1211 16.9879 11.0806 16.5623C11.0416 16.1527 11.0417 15.6464 11.0417 15.0305V15.0305V14.9695V14.9695C11.0417 14.3536 11.0416 13.8473 11.0806 13.4377C11.1211 13.0121 11.2079 12.6268 11.4227 12.2764C11.6359 11.9285 11.9285 11.6359 12.2764 11.4227C12.6268 11.208 13.0121 11.1211 13.4377 11.0806C13.8473 11.0417 14.3536 11.0417 14.9695 11.0417H14.9695H15.0305H15.0305Z" fill="white"/>
<path d="M15.0305 21.0417C15.6464 21.0417 16.1527 21.0417 16.5623 21.0806C16.9879 21.1211 17.3732 21.208 17.7236 21.4227C18.0716 21.6359 18.3641 21.9285 18.5773 22.2764C18.7921 22.6268 18.8789 23.0121 18.9194 23.4377C18.9584 23.8473 18.9583 24.3536 18.9583 24.9695V24.9695V25.0305V25.0305C18.9583 25.6464 18.9584 26.1527 18.9194 26.5623C18.8789 26.9879 18.7921 27.3732 18.5773 27.7236C18.3641 28.0716 18.0716 28.3641 17.7236 28.5773C17.3732 28.7921 16.9879 28.8789 16.5623 28.9194C16.1527 28.9584 15.6464 28.9583 15.0305 28.9583H15.0305H14.9695H14.9695C14.3536 28.9583 13.8473 28.9584 13.4377 28.9194C13.0121 28.8789 12.6268 28.7921 12.2764 28.5773C11.9285 28.3641 11.6359 28.0716 11.4227 27.7236C11.2079 27.3732 11.1211 26.9879 11.0806 26.5623C11.0416 26.1527 11.0417 25.6464 11.0417 25.0305V25.0305V24.9695V24.9695C11.0417 24.3536 11.0416 23.8473 11.0806 23.4377C11.1211 23.0121 11.2079 22.6268 11.4227 22.2764C11.6359 21.9285 11.9285 21.6359 12.2764 21.4227C12.6268 21.208 13.0121 21.1211 13.4377 21.0806C13.8473 21.0417 14.3536 21.0417 14.9695 21.0417H14.9695H15.0305H15.0305Z" fill="white"/>
<path d="M25.0305 11.0417C25.6464 11.0417 26.1527 11.0417 26.5623 11.0806C26.9879 11.1211 27.3732 11.208 27.7236 11.4227C28.0716 11.6359 28.3641 11.9285 28.5773 12.2764C28.7921 12.6268 28.8789 13.0121 28.9194 13.4377C28.9584 13.8473 28.9583 14.3536 28.9583 14.9695V14.9695V15.0305V15.0305C28.9583 15.6464 28.9584 16.1527 28.9194 16.5623C28.8789 16.9879 28.7921 17.3732 28.5773 17.7236C28.3641 18.0716 28.0716 18.3641 27.7236 18.5773C27.3732 18.7921 26.9879 18.8789 26.5623 18.9194C26.1527 18.9584 25.6464 18.9583 25.0305 18.9583H25.0305H24.9695H24.9695C24.3536 18.9583 23.8473 18.9584 23.4377 18.9194C23.0121 18.8789 22.6268 18.7921 22.2764 18.5773C21.9285 18.3641 21.6359 18.0716 21.4227 17.7236C21.2079 17.3732 21.1211 16.9879 21.0806 16.5623C21.0416 16.1527 21.0417 15.6464 21.0417 15.0305V15.0305V14.9695V14.9695C21.0417 14.3536 21.0416 13.8473 21.0806 13.4377C21.1211 13.0121 21.2079 12.6268 21.4227 12.2764C21.6359 11.9285 21.9285 11.6359 22.2764 11.4227C22.6268 11.208 23.0121 11.1211 23.4377 11.0806C23.8473 11.0417 24.3536 11.0417 24.9695 11.0417H24.9695H25.0305H25.0305Z" fill="white"/>
<path d="M25.0305 21.0417C25.6464 21.0417 26.1527 21.0417 26.5623 21.0806C26.9879 21.1211 27.3732 21.208 27.7236 21.4227C28.0716 21.6359 28.3641 21.9285 28.5773 22.2764C28.7921 22.6268 28.8789 23.0121 28.9194 23.4377C28.9584 23.8473 28.9583 24.3536 28.9583 24.9695V24.9695V25.0305V25.0305C28.9583 25.6464 28.9584 26.1527 28.9194 26.5623C28.8789 26.9879 28.7921 27.3732 28.5773 27.7236C28.3641 28.0716 28.0716 28.3641 27.7236 28.5773C27.3732 28.7921 26.9879 28.8789 26.5623 28.9194C26.1527 28.9584 25.6464 28.9583 25.0305 28.9583H25.0305H24.9695H24.9695C24.3536 28.9583 23.8473 28.9584 23.4377 28.9194C23.0121 28.8789 22.6268 28.7921 22.2764 28.5773C21.9285 28.3641 21.6359 28.0716 21.4227 27.7236C21.2079 27.3732 21.1211 26.9879 21.0806 26.5623C21.0416 26.1527 21.0417 25.6464 21.0417 25.0305V25.0305V24.9695V24.9695C21.0417 24.3536 21.0416 23.8473 21.0806 23.4377C21.1211 23.0121 21.2079 22.6268 21.4227 22.2764C21.6359 21.9285 21.9285 21.6359 22.2764 21.4227C22.6268 21.208 23.0121 21.1211 23.4377 21.0806C23.8473 21.0417 24.3536 21.0417 24.9695 21.0417H24.9695H25.0305H25.0305Z" fill="white"/>
<defs>
<linearGradient id="paint0_linear_317_188" x1="16.0937" y1="3.48145" x2="17.0827" y2="25.5381" gradientUnits="userSpaceOnUse">
<stop stop-color="#5C8FF7"/>
<stop offset="1" stop-color="#276AEE"/>
</linearGradient>
<linearGradient id="paint1_linear_317_188" x1="0.625" y1="5.14811" x2="38.2812" y2="5.14811" gradientUnits="userSpaceOnUse">
<stop offset="0.122339" stop-color="#68B0EA"/>
<stop offset="0.495974" stop-color="#9DD0FD"/>
<stop offset="0.897421" stop-color="#68B0EA"/>
</linearGradient>
</defs>
</svg>
