<svg width="16" height="16" viewBox="0 0 16 16" fill="none" xmlns="http://www.w3.org/2000/svg">
<path opacity="0.4" d="M0.833313 7.99996C0.833313 11.958 4.04194 15.1666 7.99998 15.1666C11.958 15.1666 15.1666 11.958 15.1666 7.99996C15.1666 4.04192 11.958 0.833294 7.99998 0.833294C4.04194 0.833294 0.833313 4.04192 0.833313 7.99996Z" fill="#18952D"/>
<path d="M11.2517 5.34692C11.4284 5.66996 11.3097 6.07504 10.9867 6.25171C10.0724 6.75168 9.21386 7.79835 8.55832 8.80215C8.23874 9.2915 7.98235 9.74711 7.80601 10.0802C7.71802 10.2465 7.65041 10.3814 7.60527 10.4737L7.53978 10.6106C7.43678 10.8358 7.21742 10.9855 6.97021 10.9991C6.72293 11.0128 6.48846 10.8882 6.36134 10.6757C6.1542 10.3294 5.82504 10.0132 5.52 9.77205C5.37178 9.65487 5.23837 9.56248 5.14316 9.50012L5.00297 9.41243C4.68331 9.22996 4.572 8.82294 4.75437 8.50318C4.93677 8.18335 5.34392 8.07195 5.66375 8.25436L5.87378 8.38478C5.99523 8.46434 6.16182 8.57977 6.34694 8.72613C6.4884 8.83798 6.64658 8.97247 6.80628 9.12741C6.97751 8.81982 7.19146 8.45666 7.44195 8.0731C8.11974 7.03523 9.12783 5.74857 10.3469 5.08188C10.67 4.90522 11.0751 5.02388 11.2517 5.34692Z" fill="#18952D"/>
</svg>
