<svg width="14" height="14" viewBox="0 0 14 14" fill="none" xmlns="http://www.w3.org/2000/svg">
<path fill-rule="evenodd" clip-rule="evenodd" d="M12.2456 4.06175C12.2445 4.01975 12.2322 3.98008 12.2211 3.93983C12.2124 3.906 12.2083 3.87158 12.1937 3.84067C12.1803 3.81033 12.1575 3.78583 12.1377 3.75783C12.1132 3.72225 12.091 3.68667 12.0595 3.6575C12.0543 3.65225 12.052 3.64525 12.0461 3.64058C12.0251 3.6225 11.9995 3.61608 11.9767 3.6015C11.9417 3.57875 11.9073 3.55542 11.8676 3.54025C11.8285 3.52625 11.79 3.52275 11.7498 3.51692C11.7218 3.51283 11.6967 3.5 11.667 3.5H8.75029C8.42771 3.5 8.16696 3.76133 8.16696 4.08333C8.16696 4.40533 8.42771 4.66667 8.75029 4.66667H10.3988L8.04446 7.413L5.55012 5.91675C5.30337 5.76742 4.98604 5.82225 4.80171 6.04333L1.88504 9.54333C1.67912 9.79067 1.71237 10.1587 1.95971 10.3647C2.06937 10.4557 2.20121 10.5 2.33304 10.5C2.50046 10.5 2.66612 10.4288 2.78162 10.29L5.37862 7.17383L7.86654 8.66717C8.11096 8.81358 8.42479 8.76225 8.60971 8.54642L11.0836 5.66008V7C11.0836 7.322 11.3444 7.58333 11.667 7.58333C11.9895 7.58333 12.2503 7.322 12.2503 7V4.08333C12.2503 4.07575 12.2462 4.06933 12.2456 4.06175Z" fill="#38AA4B"/>
</svg>
