<svg width="39" height="49" viewBox="0 0 39 49" fill="none" xmlns="http://www.w3.org/2000/svg">
<g filter="url(#filter0_d_1_5639)">
<path d="M6.54368 11.8485C8.67928 5.52785 13.7912 1.5 19.1737 1.5C24.5561 1.5 29.6681 5.52785 31.8037 11.8485C33.7894 17.7255 32.7124 22.7452 30.4826 27.0213C28.6414 30.552 25.9463 33.6955 23.5491 36.4915L23.5488 36.4918C23.1243 36.9869 22.7091 37.4711 22.3097 37.9447C21.4676 38.9429 20.343 39.5 19.1737 39.5C18.0044 39.5 16.8799 38.943 16.0377 37.9448L16.0348 37.9413C15.6126 37.4377 15.1722 36.9222 14.7215 36.3946L14.7214 36.3945C12.3495 33.6179 9.69098 30.5057 7.86889 27.0192C5.63635 22.7474 4.5555 17.7328 6.54368 11.8485Z" fill="white"/>
<path d="M19.1065 5.5C23.1963 5.5 27.0805 8.592 28.7032 13.4434C30.2119 17.9541 29.3935 21.8068 27.6993 25.0889C26.3004 27.7986 24.2531 30.2115 22.4317 32.3574C22.1091 32.7375 21.7929 33.1091 21.4893 33.4727C20.8494 34.2388 19.995 34.667 19.1065 34.667C18.2181 34.6669 17.3635 34.2388 16.7237 33.4727L16.7217 33.4707C16.4009 33.0841 16.0661 32.6882 15.7237 32.2832C13.9214 30.152 11.9012 27.7629 10.5167 25.0869C8.82045 21.8083 7.99939 17.9595 9.50983 13.4434C11.1325 8.59212 15.0168 5.50015 19.1065 5.5ZM19.1055 13.418C16.8845 13.418 15.084 15.6565 15.084 18.418C15.084 21.1794 16.8845 23.418 19.1055 23.418C21.3266 23.418 23.127 21.1794 23.127 18.418C23.127 15.6566 21.3266 13.418 19.1055 13.418Z" fill="#FF5555"/>
</g>
<defs>
<filter id="filter0_d_1_5639" x="0" y="0" width="38.3468" height="49" filterUnits="userSpaceOnUse" color-interpolation-filters="sRGB">
<feFlood flood-opacity="0" result="BackgroundImageFix"/>
<feColorMatrix in="SourceAlpha" type="matrix" values="0 0 0 0 0 0 0 0 0 0 0 0 0 0 0 0 0 0 127 0" result="hardAlpha"/>
<feOffset dy="4"/>
<feGaussianBlur stdDeviation="2.75"/>
<feComposite in2="hardAlpha" operator="out"/>
<feColorMatrix type="matrix" values="0 0 0 0 0 0 0 0 0 0 0 0 0 0 0 0 0 0 0.3 0"/>
<feBlend mode="normal" in2="BackgroundImageFix" result="effect1_dropShadow_1_5639"/>
<feBlend mode="normal" in="SourceGraphic" in2="effect1_dropShadow_1_5639" result="shape"/>
</filter>
</defs>
</svg>
