<svg width="20" height="20" viewBox="0 0 20 20" fill="none" xmlns="http://www.w3.org/2000/svg">
<g clip-path="url(#clip0_1_5699)">
<path d="M17.5 15.7392C17.5 16.1998 17.5 16.4301 17.4643 16.6219C17.3058 17.4724 16.6453 18.1377 15.8009 18.2973C15.6105 18.3333 15.3818 18.3333 14.9246 18.3333L5.0754 18.3333C4.61816 18.3333 4.38954 18.3333 4.19908 18.2973C3.35471 18.1377 2.6942 17.4724 2.53574 16.6219C2.5 16.4301 2.5 16.1998 2.5 15.7392C2.5 15.2873 2.5 15.0614 2.52627 14.8519C2.64095 13.9372 3.12404 13.1102 3.86221 12.5649C4.03127 12.4401 4.22734 12.3304 4.61948 12.1109L6.76238 10.9118C8.34496 10.0261 9.13625 9.58334 10 9.58334C10.8638 9.58334 11.655 10.0261 13.2376 10.9118L15.3805 12.1109C15.7727 12.3304 15.9687 12.4401 16.1378 12.5649C16.876 13.1102 17.3591 13.9372 17.4737 14.8519C17.5 15.0614 17.5 15.2873 17.5 15.7392Z" stroke="#141B34" stroke-width="1.5" stroke-linecap="round"/>
<path d="M9.35214 8.62509L8.69221 7.29433C8.60222 7.10908 8.36225 6.93139 8.15977 6.89737L6.96365 6.697C6.19874 6.56846 6.01876 6.00893 6.56994 5.45697L7.49984 4.51939C7.65733 4.3606 7.74357 4.05438 7.69482 3.83511L7.4286 2.67447C7.21862 1.75579 7.70232 1.40042 8.50848 1.88055L9.62961 2.54971C9.83209 2.67069 10.1658 2.67069 10.372 2.54971L11.4932 1.88055C12.2956 1.40042 12.783 1.75957 12.573 2.67447L12.3068 3.83511C12.2581 4.05438 12.3443 4.36061 12.5018 4.51939L13.4317 5.45697C13.9791 6.00893 13.8029 6.56846 13.038 6.697L11.8419 6.89737C11.6431 6.93139 11.4032 7.10908 11.3132 7.29433L10.6532 8.62509C10.2933 9.34718 9.70835 9.34718 9.35214 8.62509Z" stroke="#141B34" stroke-width="1.5" stroke-linecap="round" stroke-linejoin="round"/>
<path opacity="0.4" d="M13.3333 15.8333L13.3333 15M10 15.8333L10 13.3333M6.66668 15.8333L6.66668 15" stroke="#141B34" stroke-width="1.5" stroke-linecap="round"/>
</g>
<defs>
<clipPath id="clip0_1_5699">
<rect width="20" height="20" fill="white" transform="translate(20 20) rotate(-180)"/>
</clipPath>
</defs>
</svg>
