<svg width="20" height="20" viewBox="0 0 20 20" fill="none" xmlns="http://www.w3.org/2000/svg">
<path d="M11.8088 17.4088C15.2947 17.1771 18.0713 14.361 18.2998 10.8257C18.3445 10.1339 18.3445 9.41745 18.2998 8.72561C18.0713 5.19032 15.2947 2.37429 11.8088 2.14257C10.6196 2.06352 9.37797 2.06368 8.19116 2.14257C4.70532 2.37429 1.92868 5.19032 1.7002 8.72561C1.65549 9.41745 1.65549 10.1339 1.7002 10.8257C1.78341 12.1133 2.35286 13.3055 3.02326 14.3122C3.41251 15.0169 3.15562 15.8965 2.75018 16.6649C2.45784 17.2188 2.31168 17.4958 2.42904 17.6959C2.5464 17.896 2.80855 17.9024 3.33286 17.9152C4.36972 17.9404 5.0689 17.6465 5.6239 17.2372C5.93867 17.0051 6.09606 16.889 6.20453 16.8757C6.313 16.8623 6.52647 16.9503 6.95334 17.1261C7.337 17.2841 7.78247 17.3816 8.19116 17.4088C9.37797 17.4877 10.6196 17.4878 11.8088 17.4088Z" stroke="#141B34" stroke-width="1.5" stroke-linejoin="round"/>
<path opacity="0.4" d="M9.9961 10H10.0036M13.3257 10H13.3332M6.66651 10H6.67398" stroke="#141B34" stroke-width="2" stroke-linecap="round" stroke-linejoin="round"/>
</svg>
