<svg width="20" height="20" viewBox="0 0 20 20" fill="none" xmlns="http://www.w3.org/2000/svg">
<path d="M17.4523 14.0295C16.9053 10.7388 15.2027 8.28842 13.7225 6.84915C13.2917 6.43033 13.0764 6.22092 12.6007 6.02712C12.1249 5.83331 11.716 5.83331 10.8981 5.83331H9.10185C8.284 5.83331 7.87508 5.83331 7.39935 6.02712C6.92362 6.22092 6.70825 6.43033 6.27753 6.84915C4.79735 8.28842 3.09467 10.7388 2.54772 14.0295C2.14077 16.4778 4.39939 18.3333 6.9236 18.3333H13.0764C15.6006 18.3333 17.8592 16.4778 17.4523 14.0295Z" stroke="#141B34" stroke-width="1.5" stroke-linecap="round"/>
<path opacity="0.4" d="M10.6775 9.16669C10.6775 8.75247 10.3417 8.41669 9.92754 8.41669C9.51332 8.41669 9.17754 8.75247 9.17753 9.16669L9.92753 9.16669L10.6775 9.16669ZM9.17753 15C9.17753 15.4142 9.51332 15.75 9.92753 15.75C10.3417 15.75 10.6775 15.4142 10.6775 15H9.92753H9.17753ZM10.7219 10.8705C10.9725 11.2003 11.443 11.2644 11.7728 11.0138C12.1026 10.7631 12.1667 10.2926 11.916 9.96284L11.319 10.4167L10.7219 10.8705ZM9.03936 13.3254C8.7307 13.0492 8.25656 13.0754 7.98032 13.3841C7.70409 13.6928 7.73037 14.1669 8.03903 14.4431L8.53919 13.8843L9.03936 13.3254ZM9.92753 11.9995V11.2495C9.39618 11.2495 9.18119 11.1617 9.11468 11.1169C9.10816 11.1125 9.104 11.1092 9.1016 11.1071C9.09922 11.105 9.09817 11.1038 9.09798 11.1036C9.0978 11.1034 9.09796 11.1035 9.0982 11.1039C9.09843 11.1043 9.0983 11.1041 9.09786 11.1032C9.09677 11.1009 9.08333 11.0713 9.08333 10.9912H8.33333H7.58333C7.58333 11.5078 7.77243 12.0213 8.27662 12.361C8.71736 12.6579 9.29947 12.7495 9.92753 12.7495V11.9995ZM8.33333 10.9912H9.08333C9.08333 10.9607 9.09847 10.8715 9.24555 10.763C9.3924 10.6546 9.63106 10.565 9.92753 10.565V9.81496V9.06496C9.34356 9.06496 8.78512 9.2386 8.35497 9.55598C7.92507 9.87318 7.58333 10.3721 7.58333 10.9912H8.33333ZM11.6667 13.1757H10.9167C10.9167 13.2656 10.8972 13.3105 10.8835 13.3338C10.8686 13.3591 10.8387 13.3954 10.7711 13.436C10.62 13.5268 10.3396 13.602 9.92753 13.602V14.352V15.102C10.476 15.102 11.0652 15.0092 11.5435 14.7219C12.0673 14.4072 12.4167 13.878 12.4167 13.1757H11.6667ZM9.92753 11.9995V12.7495C10.4649 12.7495 10.7187 12.8332 10.8222 12.9007C10.8601 12.9255 10.8735 12.9449 10.8829 12.9643C10.8951 12.9895 10.9167 13.0508 10.9167 13.1757H11.6667H12.4167C12.4167 12.5561 12.1853 11.9989 11.6416 11.6443C11.1654 11.3338 10.5496 11.2495 9.92753 11.2495V11.9995ZM9.92753 9.81496L10.6775 9.81496L10.6775 9.16669L9.92753 9.16669L9.17753 9.16669L9.17753 9.81496L9.92753 9.81496ZM9.92753 14.352H9.17753V15H9.92753H10.6775V14.352H9.92753ZM9.92753 9.81496V10.565C10.3428 10.565 10.6195 10.7359 10.7219 10.8705L11.319 10.4167L11.916 9.96284C11.4725 9.37933 10.7075 9.06496 9.92753 9.06496V9.81496ZM9.92753 14.352V13.602C9.50756 13.602 9.19378 13.4636 9.03936 13.3254L8.53919 13.8843L8.03903 14.4431C8.51955 14.8732 9.21323 15.102 9.92753 15.102V14.352Z" fill="#141B34"/>
<path opacity="0.4" d="M6.04718 3.70241C5.87526 3.45217 5.62606 3.11252 6.14083 3.03506C6.66993 2.95544 7.21934 3.31764 7.75712 3.31019C8.24364 3.30346 8.4915 3.08768 8.75743 2.77959C9.03744 2.45517 9.47102 1.66669 10 1.66669C10.529 1.66669 10.9626 2.45517 11.2426 2.77959C11.5085 3.08768 11.7564 3.30346 12.2429 3.31019C12.7807 3.31764 13.3301 2.95544 13.8592 3.03506C14.3739 3.11252 14.1247 3.45217 13.9528 3.70241L13.1755 4.83389C12.8429 5.3179 12.6767 5.55991 12.3287 5.69663C11.9808 5.83335 11.5311 5.83335 10.6318 5.83335H9.36817C8.46889 5.83335 8.01924 5.83335 7.6713 5.69663C7.32335 5.55991 7.15708 5.3179 6.82454 4.83389L6.04718 3.70241Z" stroke="#141B34" stroke-width="1.5"/>
</svg>
