<svg width="20" height="20" viewBox="0 0 20 20" fill="none" xmlns="http://www.w3.org/2000/svg">
<path d="M1.66667 6.66667C1.66667 7.78482 8.42181 10.8333 10 10.8333C11.5782 10.8333 18.3333 7.78482 18.3333 6.66667C18.3333 5.54852 11.5782 2.5 10 2.5C8.42181 2.5 1.66667 5.54852 1.66667 6.66667Z" stroke="#141B34" stroke-width="1.5" stroke-linecap="round" stroke-linejoin="round"/>
<path d="M5 9.16667L5.20331 13.83C5.20823 13.9428 5.21995 14.0558 5.25449 14.1632C5.34048 14.4307 5.4933 14.6727 5.72255 14.837C7.57635 16.1655 12.4236 16.1655 14.2774 14.837C14.5067 14.6727 14.6595 14.4307 14.7455 14.1632C14.7801 14.0558 14.7918 13.9428 14.7967 13.83L15 9.16667" stroke="#141B34" stroke-width="1.5" stroke-linecap="round" stroke-linejoin="round"/>
<path opacity="0.4" d="M17.8333 7.91667C17.8333 7.50246 17.4975 7.16667 17.0833 7.16667C16.6691 7.16667 16.3333 7.50246 16.3333 7.91667H17.0833H17.8333ZM15.8929 16.4695L16.6225 16.6429L15.8929 16.4695ZM18.2738 16.4695L19.0035 16.2962L18.2738 16.4695ZM17.0833 7.91667H16.3333V13.756H17.0833H17.8333V7.91667H17.0833ZM15.8929 16.4695L16.6225 16.6429C16.7399 16.1489 16.9424 15.6948 17.1629 15.2634C17.361 14.8757 17.6353 14.4002 17.7809 14.0315L17.0833 13.756L16.3858 13.4805C16.2745 13.7621 16.0912 14.0641 15.8271 14.5809C15.5854 15.0539 15.3211 15.6314 15.1632 16.2962L15.8929 16.4695ZM18.2738 16.4695L19.0035 16.2962C18.8456 15.6314 18.5813 15.0539 18.3395 14.5809C18.0755 14.0641 17.8921 13.7621 17.7809 13.4805L17.0833 13.756L16.3858 14.0315C16.5314 14.4002 16.8057 14.8757 17.0038 15.2634C17.2243 15.6948 17.4268 16.1489 17.5441 16.6429L18.2738 16.4695ZM17.3462 17.5V16.75H16.8205V17.5V18.25H17.3462V17.5ZM15.8929 16.4695L15.1632 16.2962C15.0596 16.732 14.9807 17.3675 15.4394 17.8275C15.6532 18.0419 15.914 18.1397 16.1345 18.1886C16.3542 18.2374 16.5915 18.25 16.8205 18.25V17.5V16.75C16.6338 16.75 16.5224 16.7382 16.4593 16.7242C16.3969 16.7104 16.4406 16.7071 16.5016 16.7684C16.533 16.7999 16.5561 16.8359 16.5702 16.8693C16.5835 16.9004 16.5844 16.9183 16.5839 16.9129C16.5833 16.9066 16.582 16.8826 16.5872 16.8349C16.5924 16.7877 16.6031 16.7248 16.6225 16.6429L15.8929 16.4695ZM18.2738 16.4695L17.5441 16.6429C17.5636 16.7248 17.5743 16.7877 17.5794 16.8349C17.5846 16.8826 17.5833 16.9066 17.5827 16.9129C17.5822 16.9183 17.5832 16.9004 17.5964 16.8693C17.6106 16.8359 17.6336 16.7999 17.6651 16.7684C17.7261 16.7071 17.7698 16.7104 17.7074 16.7242C17.6442 16.7382 17.5329 16.75 17.3462 16.75V17.5V18.25C17.5752 18.25 17.8125 18.2374 18.0322 18.1886C18.2527 18.1397 18.5135 18.0419 18.7273 17.8275C19.1859 17.3675 19.107 16.732 19.0035 16.2962L18.2738 16.4695Z" fill="#141B34"/>
</svg>
