<svg width="20" height="20" viewBox="0 0 20 20" fill="none" xmlns="http://www.w3.org/2000/svg">
<g clip-path="url(#clip0_1_5600)">
<circle cx="10" cy="9.99996" r="8.33333" stroke="white" stroke-width="1.5"/>
<path opacity="0.4" d="M12.8776 10.329C12.7514 10.8513 12.1548 11.2204 10.9616 11.9585C9.80812 12.6721 9.23139 13.0288 8.76661 12.8854C8.57446 12.8261 8.39938 12.7135 8.25819 12.5584C7.91667 12.1832 7.91667 11.4555 7.91667 10C7.91667 8.54458 7.91667 7.81686 8.25819 7.44167C8.39938 7.28655 8.57446 7.17394 8.76661 7.11465C9.23139 6.97124 9.80812 7.32801 10.9616 8.04157C12.1548 8.7797 12.7514 9.14876 12.8776 9.67105C12.9297 9.88664 12.9297 10.1134 12.8776 10.329Z" stroke="white" stroke-width="1.5" stroke-linejoin="round"/>
</g>
<defs>
<clipPath id="clip0_1_5600">
<rect width="20" height="20" fill="white"/>
</clipPath>
</defs>
</svg>
