<svg width="16" height="16" viewBox="0 0 16 16" fill="none" xmlns="http://www.w3.org/2000/svg">
<path opacity="0.4" d="M9.29367 4.22458C10.3823 4.84304 11.2378 5.32905 11.8472 5.77424C12.4609 6.22249 12.9147 6.69101 13.0772 7.30869C13.1964 7.76167 13.1964 8.23817 13.0772 8.69115C12.9147 9.30883 12.4609 9.77735 11.8472 10.2256C11.2378 10.6708 10.3823 11.1568 9.29372 11.7752L9.2937 11.7752C8.24211 12.3727 7.35533 12.8765 6.68213 13.1628C6.00351 13.4515 5.38484 13.5978 4.78355 13.4274C4.34166 13.3021 3.93959 13.0645 3.61569 12.7377C3.1761 12.2942 2.99965 11.6812 2.91617 10.9435C2.8333 10.2112 2.83331 9.25257 2.83331 8.03332V8.03332V7.96652V7.96652C2.83331 6.74727 2.8333 5.78864 2.91617 5.05635C2.99965 4.31865 3.1761 3.70566 3.61569 3.26215C3.93959 2.93537 4.34166 2.69769 4.78355 2.57247C5.38484 2.40209 6.00351 2.54838 6.68213 2.83702C7.35533 3.12336 8.24208 3.62715 9.29367 4.22458Z" fill="white"/>
<path d="M11.8476 5.77514C12.4612 6.22339 12.915 6.69191 13.0776 7.30959C13.1968 7.76258 13.1968 8.23907 13.0776 8.69206C12.915 9.30973 12.4612 9.77825 11.8476 10.2265C11.2381 10.6717 10.3827 11.1577 9.29405 11.7761C8.24246 12.3736 7.35568 12.8774 6.68248 13.1637C6.00386 13.4524 5.38519 13.5987 4.7839 13.4283C4.34201 13.303 3.93994 13.0654 3.61604 12.7386C3.17645 12.2951 3 11.6821 2.91652 10.9444C2.86595 10.4975 2.84624 9.96632 2.83856 9.34306L10.737 5.05725C11.1689 5.31485 11.5396 5.5502 11.8476 5.77514Z" fill="white"/>
</svg>
