<svg width="20" height="20" viewBox="0 0 20 20" fill="none" xmlns="http://www.w3.org/2000/svg">
<g clip-path="url(#clip0_317_258)">
<path opacity="0.4" d="M2.91667 15C2.91667 13.8215 2.91667 13.2322 3.28278 12.8661C3.6489 12.5 4.23816 12.5 5.41667 12.5H5.83333C6.61901 12.5 7.01185 12.5 7.25592 12.7441C7.5 12.9882 7.5 13.381 7.5 14.1667V18.3333H2.91667V15Z" stroke="#141B34" stroke-width="1.5" stroke-linecap="round" stroke-linejoin="round"/>
<path opacity="0.4" d="M12.5 15.8334C12.5 15.0477 12.5 14.6548 12.7441 14.4108C12.9882 14.1667 13.381 14.1667 14.1667 14.1667H14.5833C15.7618 14.1667 16.3511 14.1667 16.7172 14.5328C17.0833 14.8989 17.0833 15.4882 17.0833 16.6667V18.3334H12.5V15.8334Z" stroke="#141B34" stroke-width="1.5" stroke-linecap="round" stroke-linejoin="round"/>
<path d="M1.66667 18.3333H18.3333" stroke="#141B34" stroke-width="1.5" stroke-linecap="round" stroke-linejoin="round"/>
<path d="M7.5 13.3333C7.5 12.1548 7.5 11.5655 7.86612 11.1994C8.23223 10.8333 8.82149 10.8333 10 10.8333C11.1785 10.8333 11.7678 10.8333 12.1339 11.1994C12.5 11.5655 12.5 12.1548 12.5 13.3333V18.3333H7.5V13.3333Z" stroke="#141B34" stroke-width="1.5" stroke-linecap="round" stroke-linejoin="round"/>
<path opacity="0.4" d="M10.5759 2.14808L11.1625 3.33098C11.2425 3.49564 11.4558 3.65359 11.6358 3.68383L12.699 3.86194C13.3789 3.9762 13.5389 4.47355 13.0489 4.96419L12.2224 5.79759C12.0824 5.93873 12.0057 6.21093 12.049 6.40584L12.2857 7.43752C12.4723 8.25412 12.0424 8.57001 11.3258 8.14323L10.3292 7.54842C10.1493 7.44088 9.85263 7.44088 9.66931 7.54842L8.67276 8.14323C7.9595 8.57001 7.52622 8.25076 7.71286 7.43752L7.9495 6.40584C7.99283 6.21093 7.91617 5.93873 7.77619 5.79759L6.94961 4.96419C6.463 4.47355 6.61965 3.9762 7.29958 3.86194L8.36279 3.68383C8.53944 3.65359 8.75275 3.49564 8.83274 3.33098L9.41934 2.14808C9.73931 1.50622 10.2592 1.50622 10.5759 2.14808Z" stroke="#141B34" stroke-width="1.5" stroke-linecap="round" stroke-linejoin="round"/>
</g>
<defs>
<clipPath id="clip0_317_258">
<rect width="20" height="20" fill="white"/>
</clipPath>
</defs>
</svg>
