<svg width="20" height="20" viewBox="0 0 20 20" fill="none" xmlns="http://www.w3.org/2000/svg">
<g clip-path="url(#clip0_1_5108)">
<path opacity="0.4" fill-rule="evenodd" clip-rule="evenodd" d="M13.9941 13.9941C14.3195 13.6686 14.8472 13.6686 15.1726 13.9941L18.9226 17.7441C19.248 18.0695 19.248 18.5972 18.9226 18.9226C18.5972 19.248 18.0695 19.248 17.7441 18.9226L13.9941 15.1726C13.6686 14.8472 13.6686 14.3195 13.9941 13.9941Z" fill="#595F70"/>
<path fill-rule="evenodd" clip-rule="evenodd" d="M0.833374 9.16667C0.833374 4.56429 4.56433 0.833332 9.16671 0.833332C13.7691 0.833332 17.5 4.56429 17.5 9.16667C17.5 13.769 13.7691 17.5 9.16671 17.5C4.56433 17.5 0.833374 13.769 0.833374 9.16667ZM9.16671 2.5C5.48481 2.5 2.50004 5.48477 2.50004 9.16667C2.50004 12.8486 5.48481 15.8333 9.16671 15.8333C12.8486 15.8333 15.8334 12.8486 15.8334 9.16667C15.8334 5.48477 12.8486 2.5 9.16671 2.5Z" fill="#595F70"/>
</g>
<defs>
<clipPath id="clip0_1_5108">
<rect width="20" height="20" fill="white"/>
</clipPath>
</defs>
</svg>
