<svg width="15" height="15" viewBox="0 0 15 15" fill="none" xmlns="http://www.w3.org/2000/svg">
<path opacity="0.4" d="M8.56989 1.71279L9.74309 4.07858C9.90307 4.40791 10.3297 4.7238 10.6897 4.78429L12.8161 5.1405C14.1759 5.36902 14.4959 6.36373 13.516 7.345L11.8629 9.01181C11.5829 9.29409 11.4296 9.83849 11.5162 10.2283L11.9895 12.2917C12.3628 13.9249 11.5029 14.5566 10.0697 13.7031L8.07661 12.5135C7.71665 12.2984 7.12338 12.2984 6.75676 12.5135L4.76364 13.7031C3.33713 14.5566 2.47056 13.9182 2.84386 12.2917L3.31714 10.2283C3.40379 9.83849 3.25048 9.29409 2.97051 9.01181L1.31736 7.345C0.344131 6.36373 0.65743 5.36902 2.01728 5.1405L4.14371 4.78429C4.49701 4.7238 4.92363 4.40791 5.08361 4.07858L6.25681 1.71279C6.89674 0.429071 7.93663 0.429071 8.56989 1.71279Z" stroke="#FF8C1A" stroke-width="1.5" stroke-linecap="round" stroke-linejoin="round"/>
<path d="M7.41813 0.750003C6.99825 0.748836 6.57736 1.06976 6.25681 1.71279L5.08361 4.07858C4.92363 4.40791 4.49701 4.7238 4.14371 4.78429L2.01728 5.1405C0.65743 5.36902 0.344131 6.36373 1.31736 7.345L2.97051 9.01181C3.25048 9.29409 3.40379 9.83849 3.31714 10.2283L2.84386 12.2917C2.47056 13.9182 3.33713 14.5566 4.76364 13.7031L6.75676 12.5135C6.9398 12.4061 7.17934 12.3523 7.41813 12.3522" stroke="#FF8C1A" stroke-width="1.5" stroke-linecap="round" stroke-linejoin="round"/>
</svg>
