<svg width="15" height="15" viewBox="0 0 15 15" fill="none" xmlns="http://www.w3.org/2000/svg">
<path d="M7.16537 0C7.86488 0 8.41589 0.528355 8.76766 1.24128L9.94235 3.61011C9.97797 3.68342 10.0624 3.78665 10.1893 3.88109C10.3162 3.97543 10.4403 4.02747 10.522 4.0412L12.6485 4.39742C13.4166 4.52649 14.0603 4.90299 14.2693 5.5586C14.4782 6.21366 14.1722 6.8944 13.6199 7.44776L13.6193 7.4483L11.9674 9.1139C11.9019 9.17992 11.8286 9.30428 11.7826 9.46629C11.7369 9.62721 11.7328 9.77379 11.7535 9.8685L11.7538 9.86981L12.2265 11.9303C12.4225 12.7878 12.3575 13.6382 11.7527 14.0828C11.1458 14.5289 10.3164 14.3312 9.56298 13.8824L7.56967 12.6927C7.48597 12.6427 7.34221 12.6022 7.1687 12.6022C6.99646 12.6022 6.84968 12.6421 6.76053 12.694L6.75927 12.6947L4.76989 13.8821C4.01734 14.3324 3.189 14.5267 2.58204 14.0801C1.97763 13.6355 1.9094 12.7867 2.10604 11.9298L2.57857 9.86981L2.57886 9.8685C2.59958 9.77379 2.59552 9.62721 2.54983 9.46629C2.50384 9.30428 2.43049 9.17992 2.36502 9.1139L0.711869 7.44709C0.163066 6.89375 -0.141893 6.2136 0.0652672 5.5595C0.273031 4.9035 0.915588 4.52653 1.68419 4.39737L3.80885 4.04146L3.80952 4.04134C3.88742 4.02783 4.00977 3.97637 4.13629 3.88179C4.26304 3.78703 4.3477 3.68357 4.38338 3.61011L4.38518 3.60645L5.55838 1.24065L5.55885 1.23972C5.91394 0.527384 6.46666 0 7.16537 0Z" fill="#FF8C1A"/>
</svg>
