<svg width="20" height="20" viewBox="0 0 20 20" fill="none" xmlns="http://www.w3.org/2000/svg">
<path d="M16.25 9.17133V7.81083C16.25 4.91442 16.25 3.46622 15.3957 2.56642C14.5415 1.66663 13.1665 1.66663 10.4167 1.66663H7.91668C5.16682 1.66663 3.79189 1.66663 2.93762 2.56642C2.08334 3.46622 2.08334 4.91442 2.08334 7.81083V12.1995C2.08334 15.0959 2.08334 16.5441 2.93762 17.4439C3.59842 18.14 4.57075 18.2976 6.25001 18.3333" stroke="url(#paint0_linear_1_5604)" stroke-width="1.5" stroke-linecap="round" stroke-linejoin="round"/>
<path opacity="0.4" d="M5.83334 13.3334H9.16668" stroke="url(#paint1_linear_1_5604)" stroke-width="1.5" stroke-linecap="round"/>
<path d="M5.83334 9.16663H12.5" stroke="url(#paint2_linear_1_5604)" stroke-width="1.5" stroke-linecap="round"/>
<path opacity="0.4" d="M12.3731 18.2131L12.2163 17.4796H12.2163L12.3731 18.2131ZM11.3702 17.2102L12.1037 17.367L11.3702 17.2102ZM12.1006 15.0931L11.5702 14.5627H11.5702L12.1006 15.0931ZM14.4902 17.4827L13.9599 16.9524L14.4902 17.4827ZM17.7469 12.8977L18.3964 12.5227L18.3964 12.5227L17.7469 12.8977ZM17.2468 14.7262L17.7771 15.2565L17.2468 14.7262ZM17.7469 14.165L18.3964 14.54H18.3964L17.7469 14.165ZM16.6856 11.8364L17.0606 11.1869V11.1869L16.6856 11.8364ZM14.8571 12.3365L15.3874 12.8669L14.8571 12.3365ZM15.4183 11.8364L15.0433 11.1869V11.1869L15.4183 11.8364ZM17.2468 14.7262L16.7164 14.1959L13.9599 16.9524L14.4902 17.4827L15.0206 18.0131L17.7771 15.2565L17.2468 14.7262ZM12.1006 15.0931L12.6309 15.6234L15.3874 12.8669L14.8571 12.3365L14.3268 11.8062L11.5702 14.5627L12.1006 15.0931ZM12.3731 18.2131L12.2163 17.4796C12.0696 17.511 11.9546 17.5355 11.8562 17.5538C11.7567 17.5723 11.696 17.5802 11.6584 17.5826C11.6193 17.5851 11.637 17.5792 11.6833 17.5912C11.7422 17.6064 11.8159 17.642 11.8786 17.7047L11.3482 18.235L10.8179 18.7654C11.1255 19.0729 11.5074 19.0952 11.7536 19.0796C11.9863 19.0648 12.2668 19.0027 12.5299 18.9465L12.3731 18.2131ZM11.3702 17.2102L10.6368 17.0534C10.5805 17.3165 10.5185 17.597 10.5037 17.8297C10.4881 18.0759 10.5104 18.4578 10.8179 18.7654L11.3482 18.235L11.8786 17.7047C11.9413 17.7674 11.9769 17.8411 11.9921 17.9C12.0041 17.9463 11.9982 17.964 12.0007 17.9249C12.0031 17.8873 12.011 17.8266 12.0295 17.7271C12.0477 17.6287 12.0723 17.5137 12.1037 17.367L11.3702 17.2102ZM17.2468 12.3365L16.7164 12.8669C17.0284 13.1788 17.0758 13.2353 17.0974 13.2727L17.7469 12.8977L18.3964 12.5227C18.2512 12.2711 18.0207 12.0498 17.7771 11.8062L17.2468 12.3365ZM17.2468 14.7262L17.7771 15.2565C18.0207 15.0129 18.2512 14.7916 18.3964 14.54L17.7469 14.165L17.0974 13.79C17.0758 13.8274 17.0284 13.8839 16.7164 14.1959L17.2468 14.7262ZM17.7469 12.8977L17.0974 13.2727C17.1898 13.4328 17.1898 13.63 17.0974 13.79L17.7469 14.165L18.3964 14.54C18.7568 13.9159 18.7568 13.1469 18.3964 12.5227L17.7469 12.8977ZM17.2468 12.3365L17.7771 11.8062C17.5335 11.5625 17.3121 11.3321 17.0606 11.1869L16.6856 11.8364L16.3106 12.4859C16.348 12.5075 16.4045 12.5549 16.7164 12.8669L17.2468 12.3365ZM14.8571 12.3365L15.3874 12.8669C15.6994 12.5549 15.7558 12.5075 15.7933 12.4859L15.4183 11.8364L15.0433 11.1869C14.7917 11.3321 14.5704 11.5625 14.3268 11.8062L14.8571 12.3365ZM16.6856 11.8364L17.0606 11.1869C16.4364 10.8265 15.6674 10.8265 15.0433 11.1869L15.4183 11.8364L15.7933 12.4859C15.9533 12.3935 16.1505 12.3935 16.3106 12.4859L16.6856 11.8364ZM14.4902 17.4827L13.9599 16.9524C13.8194 17.0929 13.6214 17.1906 13.3154 17.2688C13.162 17.3079 12.9971 17.3385 12.809 17.371C12.6297 17.402 12.4189 17.4363 12.2163 17.4796L12.3731 18.2131L12.5299 18.9465C12.695 18.9112 12.8638 18.8838 13.0643 18.8491C13.256 18.816 13.4712 18.7771 13.6864 18.7221C14.1175 18.6121 14.6103 18.4233 15.0206 18.0131L14.4902 17.4827ZM11.3702 17.2102L12.1037 17.367C12.147 17.1644 12.1813 16.9536 12.2123 16.7743C12.2448 16.5862 12.2754 16.4213 12.3145 16.2679C12.3927 15.9619 12.4904 15.7638 12.6309 15.6234L12.1006 15.0931L11.5702 14.5627C11.16 14.973 10.9712 15.4658 10.8612 15.8969C10.8062 16.1121 10.7673 16.3272 10.7342 16.5189C10.6995 16.7195 10.6721 16.8883 10.6368 17.0534L11.3702 17.2102Z" fill="url(#paint3_linear_1_5604)"/>
<path opacity="0.4" d="M8.33334 18.3334H9.16668" stroke="url(#paint4_linear_1_5604)" stroke-width="1.5" stroke-linecap="round"/>
<path d="M5.83334 1.66663L5.90184 2.07762C6.06813 3.07533 6.15127 3.57418 6.50095 3.8704C6.85063 4.16663 7.35636 4.16663 8.36783 4.16663H9.96553C10.977 4.16663 11.4827 4.16663 11.8324 3.8704C12.1821 3.57418 12.2652 3.07533 12.4315 2.07762L12.5 1.66663" stroke="url(#paint5_linear_1_5604)" stroke-width="1.5" stroke-linecap="round" stroke-linejoin="round"/>
<defs>
<linearGradient id="paint0_linear_1_5604" x1="7.78321" y1="3.11723" x2="8.2676" y2="12.3004" gradientUnits="userSpaceOnUse">
<stop stop-color="#5C8FF7"/>
<stop offset="1" stop-color="#276AEE"/>
</linearGradient>
<linearGradient id="paint1_linear_1_5604" x1="7.17449" y1="13.4204" x2="7.18192" y2="13.9728" gradientUnits="userSpaceOnUse">
<stop stop-color="#5C8FF7"/>
<stop offset="1" stop-color="#276AEE"/>
</linearGradient>
<linearGradient id="paint2_linear_1_5604" x1="8.51563" y1="9.25366" x2="8.51935" y2="9.80616" gradientUnits="userSpaceOnUse">
<stop stop-color="#5C8FF7"/>
<stop offset="1" stop-color="#276AEE"/>
</linearGradient>
<linearGradient id="paint3_linear_1_5604" x1="13.9323" y1="12.2469" x2="14.0971" y2="15.923" gradientUnits="userSpaceOnUse">
<stop stop-color="#5C8FF7"/>
<stop offset="1" stop-color="#276AEE"/>
</linearGradient>
<linearGradient id="paint4_linear_1_5604" x1="8.66863" y1="18.4204" x2="8.69827" y2="18.9713" gradientUnits="userSpaceOnUse">
<stop stop-color="#5C8FF7"/>
<stop offset="1" stop-color="#276AEE"/>
</linearGradient>
<linearGradient id="paint5_linear_1_5604" x1="8.51563" y1="1.88422" x2="8.53885" y2="3.26514" gradientUnits="userSpaceOnUse">
<stop stop-color="#5C8FF7"/>
<stop offset="1" stop-color="#276AEE"/>
</linearGradient>
</defs>
</svg>
