<svg width="16" height="16" viewBox="0 0 16 16" fill="none" xmlns="http://www.w3.org/2000/svg">
<g clip-path="url(#clip0_1_5251)">
<path opacity="0.4" d="M7.99943 15.1667C4.04139 15.1667 0.832764 11.9581 0.832764 8.00008C0.832764 4.04204 4.04139 0.833416 7.99943 0.833416C11.9575 0.833416 15.1661 4.04204 15.1661 8.00008C15.1661 11.9581 11.9575 15.1667 7.99943 15.1667Z" fill="white"/>
<path fill-rule="evenodd" clip-rule="evenodd" d="M8.00334 11.3334C8.37153 11.3334 8.67 11.0349 8.67 10.6667V7.66668L9.05836 7.66669C9.17545 7.66678 9.31922 7.66688 9.43685 7.65217L9.43908 7.65189C9.52338 7.64138 9.9074 7.59349 10.0903 7.21642C10.2736 6.83854 10.0723 6.50511 10.0288 6.43298L10.0272 6.43029C9.96568 6.32827 9.87625 6.21435 9.80268 6.12065L9.78687 6.10049C9.59044 5.84994 9.3358 5.52713 9.08218 5.26645C8.95563 5.13638 8.81078 5.00222 8.65684 4.89633C8.52 4.80219 8.28654 4.66668 7.99943 4.66668C7.71232 4.66668 7.47886 4.80219 7.34202 4.89633C7.18808 5.00222 7.04324 5.13638 6.91668 5.26645C6.66306 5.52713 6.40842 5.84994 6.212 6.10049L6.19617 6.12065C6.12261 6.21436 6.03318 6.32827 5.9717 6.43029L5.97008 6.43298C5.92653 6.50511 5.72524 6.83854 5.90855 7.21642C6.09146 7.59349 6.47548 7.64138 6.55978 7.65189L6.56201 7.65217C6.67964 7.66688 6.82341 7.66678 6.9405 7.66669L7.33667 7.66668V10.6667C7.33667 11.0349 7.63515 11.3334 8.00334 11.3334Z" fill="white"/>
</g>
<defs>
<clipPath id="clip0_1_5251">
<rect width="16" height="16" fill="white"/>
</clipPath>
</defs>
</svg>
