<svg width="20" height="20" viewBox="0 0 20 20" fill="none" xmlns="http://www.w3.org/2000/svg">
<path opacity="0.4" d="M17.3116 15C17.936 15 18.4327 14.6071 18.8786 14.0576C19.7915 12.9329 18.2927 12.034 17.7211 11.5938C17.1399 11.1463 16.4911 10.8928 15.8333 10.8333M14.9999 9.16667C16.1505 9.16667 17.0833 8.23393 17.0833 7.08333C17.0833 5.93274 16.1505 5 14.9999 5" stroke="#141B34" stroke-width="1.5" stroke-linecap="round"/>
<path opacity="0.4" d="M2.68824 15C2.06382 15 1.56716 14.6071 1.12123 14.0576C0.208345 12.9329 1.70716 12.034 2.27881 11.5938C2.85992 11.1463 3.50876 10.8928 4.1666 10.8333M4.58327 9.16667C3.43268 9.16667 2.49994 8.23393 2.49994 7.08333C2.49994 5.93274 3.43268 5 4.58327 5" stroke="#141B34" stroke-width="1.5" stroke-linecap="round"/>
<path d="M6.73641 12.5926C5.88493 13.1192 3.6524 14.1942 5.01216 15.5395C5.67639 16.1967 6.41618 16.6667 7.34627 16.6667H12.6536C13.5836 16.6667 14.3234 16.1967 14.9877 15.5395C16.3474 14.1942 14.1149 13.1192 13.2634 12.5926C11.2667 11.358 8.73313 11.358 6.73641 12.5926Z" stroke="#141B34" stroke-width="1.5" stroke-linecap="round" stroke-linejoin="round"/>
<path d="M12.9166 6.25001C12.9166 7.86084 11.6107 9.16668 9.99991 9.16668C8.38908 9.16668 7.08324 7.86084 7.08324 6.25001C7.08324 4.63918 8.38908 3.33334 9.99991 3.33334C11.6107 3.33334 12.9166 4.63918 12.9166 6.25001Z" stroke="#141B34" stroke-width="1.5"/>
</svg>
